<svg width="1280" height="640" viewBox="0 0 1280 640" fill="none" xmlns="http://www.w3.org/2000/svg">
<path d="M317.518 301L303.791 254.455H317.882L324.245 283.091H324.609L332.155 254.455H343.245L350.791 283.182H351.155L357.518 254.455H371.609L357.882 301H345.791L337.882 275H337.518L329.609 301H317.518ZM386.627 301.636C382.899 301.636 379.687 300.924 376.99 299.5C374.308 298.061 372.24 296 370.786 293.318C369.346 290.621 368.627 287.394 368.627 283.636C368.627 280.03 369.354 276.879 370.808 274.182C372.263 271.485 374.316 269.386 376.968 267.886C379.619 266.386 382.748 265.636 386.354 265.636C388.99 265.636 391.377 266.045 393.513 266.864C395.649 267.682 397.475 268.871 398.99 270.432C400.505 271.977 401.672 273.856 402.49 276.068C403.308 278.28 403.718 280.773 403.718 283.545V286.455H372.536V279.545H392.172C392.157 278.545 391.899 277.667 391.399 276.909C390.914 276.136 390.255 275.538 389.422 275.114C388.604 274.674 387.672 274.455 386.627 274.455C385.611 274.455 384.68 274.674 383.831 275.114C382.983 275.538 382.301 276.129 381.786 276.886C381.286 277.644 381.021 278.53 380.99 279.545V287C380.99 288.121 381.225 289.121 381.695 290C382.164 290.879 382.839 291.568 383.718 292.068C384.596 292.568 385.657 292.818 386.899 292.818C387.763 292.818 388.551 292.697 389.263 292.455C389.99 292.212 390.611 291.864 391.127 291.409C391.642 290.939 392.021 290.379 392.263 289.727H403.718C403.324 292.152 402.392 294.258 400.922 296.045C399.452 297.818 397.505 299.197 395.081 300.182C392.672 301.152 389.854 301.636 386.627 301.636ZM419.462 254.455V301H406.917V254.455H419.462ZM440.753 301.636C436.965 301.636 433.722 300.886 431.025 299.386C428.328 297.871 426.26 295.765 424.821 293.068C423.381 290.356 422.662 287.212 422.662 283.636C422.662 280.061 423.381 276.924 424.821 274.227C426.26 271.515 428.328 269.409 431.025 267.909C433.722 266.394 436.965 265.636 440.753 265.636C444.177 265.636 447.139 266.258 449.639 267.5C452.154 268.727 454.101 270.47 455.48 272.727C456.859 274.97 457.556 277.606 457.571 280.636H445.934C445.768 278.803 445.237 277.409 444.343 276.455C443.465 275.485 442.328 275 440.934 275C439.843 275 438.889 275.318 438.071 275.955C437.253 276.576 436.616 277.523 436.162 278.795C435.707 280.053 435.48 281.636 435.48 283.545C435.48 285.455 435.707 287.045 436.162 288.318C436.616 289.576 437.253 290.523 438.071 291.159C438.889 291.78 439.843 292.091 440.934 292.091C441.859 292.091 442.677 291.879 443.389 291.455C444.101 291.015 444.677 290.379 445.116 289.545C445.571 288.697 445.843 287.667 445.934 286.455H457.571C457.525 289.53 456.821 292.212 455.457 294.5C454.093 296.773 452.162 298.53 449.662 299.773C447.177 301.015 444.207 301.636 440.753 301.636ZM477.645 301.636C473.857 301.636 470.615 300.886 467.918 299.386C465.221 297.871 463.153 295.765 461.713 293.068C460.274 290.356 459.554 287.212 459.554 283.636C459.554 280.061 460.274 276.924 461.713 274.227C463.153 271.515 465.221 269.409 467.918 267.909C470.615 266.394 473.857 265.636 477.645 265.636C481.433 265.636 484.675 266.394 487.372 267.909C490.069 269.409 492.137 271.515 493.577 274.227C495.016 276.924 495.736 280.061 495.736 283.636C495.736 287.212 495.016 290.356 493.577 293.068C492.137 295.765 490.069 297.871 487.372 299.386C484.675 300.886 481.433 301.636 477.645 301.636ZM477.736 292.364C478.797 292.364 479.713 292.008 480.486 291.295C481.259 290.583 481.857 289.568 482.281 288.25C482.706 286.932 482.918 285.364 482.918 283.545C482.918 281.712 482.706 280.144 482.281 278.841C481.857 277.523 481.259 276.508 480.486 275.795C479.713 275.083 478.797 274.727 477.736 274.727C476.615 274.727 475.653 275.083 474.85 275.795C474.047 276.508 473.433 277.523 473.009 278.841C472.584 280.144 472.372 281.712 472.372 283.545C472.372 285.364 472.584 286.932 473.009 288.25C473.433 289.568 474.047 290.583 474.85 291.295C475.653 292.008 476.615 292.364 477.736 292.364ZM498.907 301V266.091H510.816V272.727H511.18C511.907 270.545 513.149 268.818 514.907 267.545C516.664 266.273 518.755 265.636 521.18 265.636C523.634 265.636 525.748 266.288 527.52 267.591C529.293 268.879 530.361 270.591 530.725 272.727H531.089C531.68 270.591 532.937 268.879 534.861 267.591C536.786 266.288 539.043 265.636 541.634 265.636C544.983 265.636 547.695 266.712 549.77 268.864C551.861 271.015 552.907 273.879 552.907 277.455V301H540.361V280.636C540.361 279.106 539.975 277.909 539.202 277.045C538.43 276.167 537.392 275.727 536.089 275.727C534.801 275.727 533.778 276.167 533.02 277.045C532.278 277.909 531.907 279.106 531.907 280.636V301H519.907V280.636C519.907 279.106 519.52 277.909 518.748 277.045C517.975 276.167 516.937 275.727 515.634 275.727C514.77 275.727 514.028 275.924 513.407 276.318C512.786 276.712 512.301 277.28 511.952 278.023C511.619 278.75 511.452 279.621 511.452 280.636V301H498.907ZM573.902 301.636C570.174 301.636 566.962 300.924 564.265 299.5C561.583 298.061 559.515 296 558.061 293.318C556.621 290.621 555.902 287.394 555.902 283.636C555.902 280.03 556.629 276.879 558.083 274.182C559.538 271.485 561.591 269.386 564.243 267.886C566.894 266.386 570.023 265.636 573.629 265.636C576.265 265.636 578.652 266.045 580.788 266.864C582.924 267.682 584.75 268.871 586.265 270.432C587.78 271.977 588.947 273.856 589.765 276.068C590.583 278.28 590.993 280.773 590.993 283.545V286.455H559.811V279.545H579.447C579.432 278.545 579.174 277.667 578.674 276.909C578.189 276.136 577.53 275.538 576.697 275.114C575.879 274.674 574.947 274.455 573.902 274.455C572.886 274.455 571.955 274.674 571.106 275.114C570.258 275.538 569.576 276.129 569.061 276.886C568.561 277.644 568.296 278.53 568.265 279.545V287C568.265 288.121 568.5 289.121 568.97 290C569.439 290.879 570.114 291.568 570.993 292.068C571.871 292.568 572.932 292.818 574.174 292.818C575.038 292.818 575.826 292.697 576.538 292.455C577.265 292.212 577.886 291.864 578.402 291.409C578.917 290.939 579.296 290.379 579.538 289.727H590.993C590.599 292.152 589.667 294.258 588.197 296.045C586.727 297.818 584.78 299.197 582.356 300.182C579.947 301.152 577.129 301.636 573.902 301.636ZM625.84 266.091V275.182H602.84V266.091H625.84ZM607.295 257.727H619.84V289.773C619.84 290.258 619.923 290.667 620.09 291C620.257 291.318 620.514 291.561 620.863 291.727C621.211 291.879 621.658 291.955 622.204 291.955C622.582 291.955 623.022 291.909 623.522 291.818C624.037 291.727 624.416 291.652 624.658 291.591L626.476 300.409C625.916 300.576 625.113 300.78 624.067 301.023C623.037 301.265 621.81 301.424 620.385 301.5C617.507 301.652 615.09 301.356 613.135 300.614C611.181 299.856 609.711 298.667 608.726 297.045C607.742 295.424 607.264 293.394 607.295 290.955V257.727ZM645.483 301.636C641.695 301.636 638.452 300.886 635.755 299.386C633.058 297.871 630.99 295.765 629.551 293.068C628.111 290.356 627.392 287.212 627.392 283.636C627.392 280.061 628.111 276.924 629.551 274.227C630.99 271.515 633.058 269.409 635.755 267.909C638.452 266.394 641.695 265.636 645.483 265.636C649.27 265.636 652.513 266.394 655.21 267.909C657.907 269.409 659.975 271.515 661.414 274.227C662.854 276.924 663.573 280.061 663.573 283.636C663.573 287.212 662.854 290.356 661.414 293.068C659.975 295.765 657.907 297.871 655.21 299.386C652.513 300.886 649.27 301.636 645.483 301.636ZM645.573 292.364C646.634 292.364 647.551 292.008 648.323 291.295C649.096 290.583 649.695 289.568 650.119 288.25C650.543 286.932 650.755 285.364 650.755 283.545C650.755 281.712 650.543 280.144 650.119 278.841C649.695 277.523 649.096 276.508 648.323 275.795C647.551 275.083 646.634 274.727 645.573 274.727C644.452 274.727 643.49 275.083 642.687 275.795C641.884 276.508 641.27 277.523 640.846 278.841C640.422 280.144 640.21 281.712 640.21 283.545C640.21 285.364 640.422 286.932 640.846 288.25C641.27 289.568 641.884 290.583 642.687 291.295C643.49 292.008 644.452 292.364 645.573 292.364ZM677.574 301V266.091H689.483V272.727H689.847C690.574 270.545 691.817 268.818 693.574 267.545C695.332 266.273 697.423 265.636 699.847 265.636C702.302 265.636 704.415 266.288 706.188 267.591C707.961 268.879 709.029 270.591 709.393 272.727H709.756C710.347 270.591 711.605 268.879 713.529 267.591C715.453 266.288 717.711 265.636 720.302 265.636C723.65 265.636 726.362 266.712 728.438 268.864C730.529 271.015 731.574 273.879 731.574 277.455V301H719.029V280.636C719.029 279.106 718.643 277.909 717.87 277.045C717.097 276.167 716.059 275.727 714.756 275.727C713.468 275.727 712.446 276.167 711.688 277.045C710.946 277.909 710.574 279.106 710.574 280.636V301H698.574V280.636C698.574 279.106 698.188 277.909 697.415 277.045C696.643 276.167 695.605 275.727 694.302 275.727C693.438 275.727 692.696 275.924 692.074 276.318C691.453 276.712 690.968 277.28 690.62 278.023C690.286 278.75 690.12 279.621 690.12 280.636V301H677.574ZM742.228 314.091C740.789 314.091 739.418 313.977 738.115 313.75C736.812 313.538 735.668 313.242 734.683 312.864L737.41 303.955C738.44 304.318 739.38 304.553 740.228 304.659C741.092 304.765 741.827 304.705 742.433 304.477C743.054 304.25 743.501 303.818 743.774 303.182L744.046 302.545L731.774 266.091H744.865L750.501 290.273H750.865L756.592 266.091H769.774L757.046 303.909C756.41 305.833 755.486 307.561 754.274 309.091C753.077 310.636 751.501 311.856 749.546 312.75C747.592 313.644 745.152 314.091 742.228 314.091ZM782.252 314.091V266.091H794.706V272.182H794.979C795.434 271 796.1 269.917 796.979 268.932C797.858 267.932 798.949 267.136 800.252 266.545C801.555 265.939 803.07 265.636 804.797 265.636C807.1 265.636 809.29 266.25 811.365 267.477C813.456 268.705 815.153 270.636 816.456 273.273C817.775 275.909 818.434 279.333 818.434 283.545C818.434 287.576 817.805 290.917 816.547 293.568C815.305 296.22 813.638 298.197 811.547 299.5C809.472 300.803 807.191 301.455 804.706 301.455C803.07 301.455 801.608 301.189 800.32 300.659C799.047 300.114 797.956 299.379 797.047 298.455C796.153 297.515 795.464 296.455 794.979 295.273H794.797V314.091H782.252ZM794.525 283.545C794.525 285.242 794.744 286.712 795.184 287.955C795.638 289.182 796.275 290.136 797.093 290.818C797.926 291.485 798.918 291.818 800.07 291.818C801.222 291.818 802.199 291.492 803.002 290.841C803.82 290.174 804.441 289.227 804.865 288C805.305 286.758 805.525 285.273 805.525 283.545C805.525 281.818 805.305 280.341 804.865 279.114C804.441 277.871 803.82 276.924 803.002 276.273C802.199 275.606 801.222 275.273 800.07 275.273C798.918 275.273 797.926 275.606 797.093 276.273C796.275 276.924 795.638 277.871 795.184 279.114C794.744 280.341 794.525 281.818 794.525 283.545ZM821.769 301V266.091H833.951V272.727H834.315C834.951 270.273 835.959 268.477 837.338 267.341C838.731 266.205 840.36 265.636 842.224 265.636C842.769 265.636 843.307 265.682 843.838 265.773C844.383 265.848 844.906 265.962 845.406 266.114V276.818C844.784 276.606 844.019 276.447 843.11 276.341C842.201 276.235 841.421 276.182 840.769 276.182C839.542 276.182 838.436 276.462 837.451 277.023C836.481 277.568 835.716 278.341 835.156 279.341C834.595 280.326 834.315 281.485 834.315 282.818V301H821.769ZM862.418 301.636C858.63 301.636 855.387 300.886 852.69 299.386C849.993 297.871 847.925 295.765 846.486 293.068C845.046 290.356 844.327 287.212 844.327 283.636C844.327 280.061 845.046 276.924 846.486 274.227C847.925 271.515 849.993 269.409 852.69 267.909C855.387 266.394 858.63 265.636 862.418 265.636C866.205 265.636 869.448 266.394 872.145 267.909C874.842 269.409 876.91 271.515 878.349 274.227C879.789 276.924 880.508 280.061 880.508 283.636C880.508 287.212 879.789 290.356 878.349 293.068C876.91 295.765 874.842 297.871 872.145 299.386C869.448 300.886 866.205 301.636 862.418 301.636ZM862.508 292.364C863.569 292.364 864.486 292.008 865.258 291.295C866.031 290.583 866.63 289.568 867.054 288.25C867.478 286.932 867.69 285.364 867.69 283.545C867.69 281.712 867.478 280.144 867.054 278.841C866.63 277.523 866.031 276.508 865.258 275.795C864.486 275.083 863.569 274.727 862.508 274.727C861.387 274.727 860.425 275.083 859.622 275.795C858.819 276.508 858.205 277.523 857.781 278.841C857.357 280.144 857.145 281.712 857.145 283.545C857.145 285.364 857.357 286.932 857.781 288.25C858.205 289.568 858.819 290.583 859.622 291.295C860.425 292.008 861.387 292.364 862.508 292.364ZM904.588 266.091V275.182H881.225V266.091H904.588ZM885.679 301V265.091C885.679 262.212 886.194 259.826 887.225 257.932C888.255 256.038 889.71 254.621 891.588 253.682C893.467 252.742 895.679 252.273 898.225 252.273C899.816 252.273 901.361 252.394 902.861 252.636C904.376 252.879 905.497 253.091 906.225 253.273L904.407 262.273C903.952 262.136 903.422 262.03 902.816 261.955C902.21 261.864 901.679 261.818 901.225 261.818C900.043 261.818 899.247 262.068 898.838 262.568C898.429 263.068 898.225 263.727 898.225 264.545V301H885.679ZM907.509 301V266.091H920.055V301H907.509ZM913.782 262.455C912.085 262.455 910.631 261.894 909.418 260.773C908.206 259.652 907.6 258.303 907.6 256.727C907.6 255.152 908.206 253.803 909.418 252.682C910.631 251.561 912.085 251 913.782 251C915.494 251 916.949 251.561 918.146 252.682C919.358 253.803 919.964 255.152 919.964 256.727C919.964 258.303 919.358 259.652 918.146 260.773C916.949 261.894 915.494 262.455 913.782 262.455ZM937.072 254.455V301H924.527V254.455H937.072ZM958.272 301.636C954.544 301.636 951.332 300.924 948.635 299.5C945.953 298.061 943.885 296 942.431 293.318C940.991 290.621 940.272 287.394 940.272 283.636C940.272 280.03 940.999 276.879 942.453 274.182C943.908 271.485 945.961 269.386 948.612 267.886C951.264 266.386 954.393 265.636 957.999 265.636C960.635 265.636 963.022 266.045 965.158 266.864C967.294 267.682 969.12 268.871 970.635 270.432C972.15 271.977 973.317 273.856 974.135 276.068C974.953 278.28 975.362 280.773 975.362 283.545V286.455H944.181V279.545H963.817C963.802 278.545 963.544 277.667 963.044 276.909C962.559 276.136 961.9 275.538 961.067 275.114C960.249 274.674 959.317 274.455 958.272 274.455C957.256 274.455 956.325 274.674 955.476 275.114C954.628 275.538 953.946 276.129 953.431 276.886C952.931 277.644 952.666 278.53 952.635 279.545V287C952.635 288.121 952.87 289.121 953.34 290C953.809 290.879 954.484 291.568 955.362 292.068C956.241 292.568 957.302 292.818 958.544 292.818C959.408 292.818 960.196 292.697 960.908 292.455C961.635 292.212 962.256 291.864 962.772 291.409C963.287 290.939 963.666 290.379 963.908 289.727H975.362C974.969 292.152 974.037 294.258 972.567 296.045C971.097 297.818 969.15 299.197 966.726 300.182C964.317 301.152 961.499 301.636 958.272 301.636Z" fill="url(#paint0_linear_1_2)"/>
<path d="M180 332H1100" stroke="#FB3C5D" stroke-width="4" stroke-linecap="round"/>
<path d="M260.213 369C260.13 367.958 259.739 367.146 259.041 366.562C258.354 365.979 257.307 365.687 255.9 365.687C255.005 365.687 254.27 365.797 253.697 366.016C253.135 366.224 252.718 366.51 252.447 366.875C252.176 367.24 252.036 367.656 252.025 368.125C252.005 368.51 252.072 368.859 252.229 369.172C252.395 369.474 252.656 369.75 253.01 370C253.364 370.24 253.817 370.458 254.369 370.656C254.921 370.854 255.577 371.031 256.338 371.187L258.963 371.75C260.734 372.125 262.249 372.62 263.51 373.234C264.77 373.849 265.801 374.573 266.604 375.406C267.406 376.229 267.994 377.156 268.369 378.187C268.755 379.219 268.952 380.344 268.963 381.562C268.952 383.667 268.426 385.448 267.385 386.906C266.343 388.365 264.854 389.474 262.916 390.234C260.989 390.995 258.671 391.375 255.963 391.375C253.182 391.375 250.755 390.964 248.682 390.141C246.619 389.318 245.015 388.052 243.869 386.344C242.734 384.625 242.161 382.427 242.15 379.75H250.4C250.452 380.729 250.697 381.552 251.135 382.219C251.572 382.885 252.187 383.391 252.979 383.734C253.781 384.078 254.734 384.25 255.838 384.25C256.765 384.25 257.541 384.135 258.166 383.906C258.791 383.677 259.265 383.359 259.588 382.953C259.911 382.547 260.077 382.083 260.088 381.562C260.077 381.073 259.916 380.646 259.604 380.281C259.301 379.906 258.801 379.573 258.104 379.281C257.406 378.979 256.463 378.698 255.275 378.437L252.088 377.75C249.255 377.135 247.02 376.109 245.385 374.672C243.76 373.224 242.952 371.25 242.963 368.75C242.952 366.719 243.494 364.943 244.588 363.422C245.692 361.891 247.218 360.698 249.166 359.844C251.124 358.99 253.369 358.562 255.9 358.562C258.484 358.562 260.718 358.995 262.604 359.859C264.489 360.724 265.942 361.943 266.963 363.516C267.994 365.078 268.515 366.906 268.525 369H260.213ZM279.08 391.375C277.549 391.375 276.195 391.125 275.018 390.625C273.851 390.115 272.934 389.344 272.268 388.312C271.601 387.281 271.268 385.969 271.268 384.375C271.268 383.062 271.492 381.943 271.939 381.016C272.387 380.078 273.012 379.312 273.814 378.719C274.617 378.125 275.549 377.672 276.611 377.359C277.684 377.047 278.84 376.844 280.08 376.75C281.424 376.646 282.502 376.521 283.314 376.375C284.137 376.219 284.731 376.005 285.096 375.734C285.46 375.453 285.643 375.083 285.643 374.625V374.562C285.643 373.937 285.403 373.458 284.924 373.125C284.445 372.792 283.83 372.625 283.08 372.625C282.257 372.625 281.585 372.807 281.064 373.172C280.554 373.526 280.247 374.073 280.143 374.812H272.205C272.309 373.354 272.773 372.01 273.596 370.781C274.429 369.542 275.643 368.552 277.236 367.813C278.83 367.063 280.82 366.688 283.205 366.688C284.924 366.688 286.465 366.891 287.83 367.297C289.195 367.693 290.356 368.25 291.314 368.969C292.273 369.677 293.002 370.51 293.502 371.469C294.012 372.417 294.268 373.448 294.268 374.562V391H286.205V387.625H286.018C285.538 388.521 284.955 389.245 284.268 389.797C283.59 390.349 282.814 390.75 281.939 391C281.075 391.25 280.122 391.375 279.08 391.375ZM281.893 385.937C282.549 385.937 283.163 385.802 283.736 385.531C284.32 385.26 284.794 384.87 285.158 384.359C285.523 383.849 285.705 383.229 285.705 382.5V380.5C285.476 380.594 285.231 380.682 284.971 380.766C284.721 380.849 284.45 380.927 284.158 381C283.877 381.073 283.575 381.141 283.252 381.203C282.939 381.266 282.611 381.323 282.268 381.375C281.601 381.479 281.054 381.651 280.627 381.891C280.21 382.12 279.898 382.406 279.689 382.75C279.492 383.083 279.393 383.458 279.393 383.875C279.393 384.542 279.627 385.052 280.096 385.406C280.564 385.76 281.163 385.937 281.893 385.937ZM298.389 391V367H306.576V371.562H306.826C307.326 370.062 308.18 368.875 309.389 368C310.597 367.125 312.035 366.688 313.701 366.688C315.389 366.688 316.842 367.135 318.061 368.031C319.279 368.917 320.014 370.094 320.264 371.562H320.514C320.92 370.094 321.785 368.917 323.107 368.031C324.43 367.135 325.982 366.688 327.764 366.688C330.066 366.688 331.93 367.427 333.357 368.906C334.795 370.385 335.514 372.354 335.514 374.812V391H326.889V377C326.889 375.948 326.623 375.125 326.092 374.531C325.561 373.927 324.847 373.625 323.951 373.625C323.066 373.625 322.363 373.927 321.842 374.531C321.331 375.125 321.076 375.948 321.076 377V391H312.826V377C312.826 375.948 312.561 375.125 312.029 374.531C311.498 373.927 310.785 373.625 309.889 373.625C309.295 373.625 308.785 373.76 308.357 374.031C307.93 374.302 307.597 374.693 307.357 375.203C307.128 375.703 307.014 376.302 307.014 377V391H298.389ZM355.33 380.5V367H363.955V391H355.768V386.437H355.518C354.997 387.969 354.085 389.167 352.783 390.031C351.481 390.885 349.934 391.313 348.143 391.313C346.465 391.313 344.997 390.927 343.736 390.156C342.486 389.385 341.512 388.323 340.814 386.969C340.127 385.615 339.778 384.062 339.768 382.312V367H348.393V380.5C348.403 381.687 348.705 382.62 349.299 383.297C349.903 383.974 350.747 384.312 351.83 384.312C352.549 384.312 353.169 384.161 353.689 383.859C354.221 383.547 354.627 383.109 354.908 382.547C355.2 381.974 355.34 381.292 355.33 380.5ZM379.842 391.437C377.279 391.437 375.071 390.948 373.217 389.969C371.373 388.979 369.951 387.562 368.951 385.719C367.962 383.865 367.467 381.646 367.467 379.063C367.467 376.583 367.967 374.417 368.967 372.562C369.967 370.708 371.378 369.266 373.201 368.234C375.024 367.203 377.175 366.688 379.654 366.688C381.467 366.688 383.107 366.969 384.576 367.531C386.045 368.094 387.3 368.911 388.342 369.984C389.383 371.047 390.186 372.339 390.748 373.859C391.311 375.38 391.592 377.094 391.592 379V381H370.154V376.25H383.654C383.644 375.562 383.467 374.958 383.123 374.437C382.79 373.906 382.337 373.495 381.764 373.203C381.201 372.901 380.561 372.75 379.842 372.75C379.144 372.75 378.503 372.901 377.92 373.203C377.337 373.495 376.868 373.901 376.514 374.422C376.17 374.943 375.988 375.552 375.967 376.25V381.375C375.967 382.146 376.128 382.833 376.451 383.438C376.774 384.042 377.238 384.516 377.842 384.859C378.446 385.203 379.175 385.375 380.029 385.375C380.623 385.375 381.165 385.292 381.654 385.125C382.154 384.958 382.581 384.719 382.936 384.406C383.29 384.083 383.55 383.698 383.717 383.25H391.592C391.321 384.917 390.68 386.365 389.67 387.594C388.66 388.813 387.321 389.76 385.654 390.437C383.998 391.104 382.061 391.437 379.842 391.437ZM403.736 359V391H395.111V359H403.736ZM424.896 391L415.459 359H425.146L429.521 378.687H429.771L434.959 359H442.584L447.771 378.75H448.021L452.396 359H462.084L452.646 391H444.334L438.896 373.125H438.646L433.209 391H424.896ZM468.916 391.375C467.385 391.375 466.031 391.125 464.854 390.625C463.687 390.115 462.77 389.344 462.104 388.312C461.437 387.281 461.104 385.969 461.104 384.375C461.104 383.062 461.327 381.943 461.775 381.016C462.223 380.078 462.848 379.312 463.65 378.719C464.452 378.125 465.385 377.672 466.447 377.359C467.52 377.047 468.676 376.844 469.916 376.75C471.26 376.646 472.338 376.521 473.15 376.375C473.973 376.219 474.567 376.005 474.932 375.734C475.296 375.453 475.479 375.083 475.479 374.625V374.562C475.479 373.937 475.239 373.458 474.76 373.125C474.281 372.792 473.666 372.625 472.916 372.625C472.093 372.625 471.421 372.807 470.9 373.172C470.39 373.526 470.083 374.073 469.979 374.812H462.041C462.145 373.354 462.609 372.01 463.432 370.781C464.265 369.542 465.479 368.552 467.072 367.813C468.666 367.063 470.656 366.688 473.041 366.688C474.76 366.688 476.301 366.891 477.666 367.297C479.031 367.693 480.192 368.25 481.15 368.969C482.109 369.677 482.838 370.51 483.338 371.469C483.848 372.417 484.104 373.448 484.104 374.562V391H476.041V387.625H475.854C475.374 388.521 474.791 389.245 474.104 389.797C473.426 390.349 472.65 390.75 471.775 391C470.911 391.25 469.958 391.375 468.916 391.375ZM471.729 385.937C472.385 385.937 472.999 385.802 473.572 385.531C474.156 385.26 474.63 384.87 474.994 384.359C475.359 383.849 475.541 383.229 475.541 382.5V380.5C475.312 380.594 475.067 380.682 474.807 380.766C474.557 380.849 474.286 380.927 473.994 381C473.713 381.073 473.411 381.141 473.088 381.203C472.775 381.266 472.447 381.323 472.104 381.375C471.437 381.479 470.89 381.651 470.463 381.891C470.046 382.12 469.734 382.406 469.525 382.75C469.327 383.083 469.229 383.458 469.229 383.875C469.229 384.542 469.463 385.052 469.932 385.406C470.4 385.76 470.999 385.937 471.729 385.937ZM488.225 391V367H496.6V371.562H496.85C497.287 369.875 497.98 368.641 498.928 367.859C499.886 367.078 501.006 366.688 502.287 366.688C502.662 366.688 503.032 366.719 503.396 366.781C503.771 366.833 504.131 366.911 504.475 367.016V374.375C504.048 374.229 503.521 374.12 502.896 374.047C502.271 373.974 501.735 373.937 501.287 373.937C500.443 373.937 499.683 374.13 499.006 374.516C498.339 374.891 497.813 375.422 497.428 376.109C497.042 376.786 496.85 377.583 496.85 378.5V391H488.225ZM514.615 391.313C512.907 391.313 511.334 390.865 509.896 389.969C508.469 389.073 507.324 387.714 506.459 385.891C505.605 384.068 505.178 381.771 505.178 379C505.178 376.104 505.626 373.75 506.521 371.937C507.428 370.125 508.594 368.797 510.021 367.953C511.459 367.109 512.969 366.688 514.553 366.688C515.74 366.688 516.782 366.896 517.678 367.312C518.574 367.719 519.324 368.266 519.928 368.953C520.532 369.63 520.99 370.375 521.303 371.187H521.428V359H530.053V391H521.49V387.062H521.303C520.969 387.875 520.49 388.604 519.865 389.25C519.251 389.885 518.501 390.391 517.615 390.766C516.74 391.13 515.74 391.313 514.615 391.313ZM517.803 384.688C518.594 384.688 519.271 384.458 519.834 384C520.407 383.531 520.844 382.875 521.146 382.031C521.459 381.177 521.615 380.167 521.615 379C521.615 377.812 521.459 376.797 521.146 375.953C520.844 375.099 520.407 374.448 519.834 374C519.271 373.542 518.594 373.312 517.803 373.312C517.011 373.312 516.334 373.542 515.771 374C515.219 374.448 514.792 375.099 514.49 375.953C514.199 376.797 514.053 377.812 514.053 379C514.053 380.187 514.199 381.208 514.49 382.062C514.792 382.906 515.219 383.557 515.771 384.016C516.334 384.464 517.011 384.688 517.803 384.688Z" fill="url(#paint1_linear_1_2)"/>
<path d="M549.506 385.125C548.245 385.125 547.094 384.818 546.053 384.203C545.011 383.578 544.178 382.745 543.553 381.703C542.938 380.661 542.631 379.51 542.631 378.25C542.631 376.979 542.938 375.828 543.553 374.797C544.178 373.755 545.011 372.927 546.053 372.312C547.094 371.687 548.245 371.375 549.506 371.375C550.777 371.375 551.928 371.687 552.959 372.312C554.001 372.927 554.829 373.755 555.443 374.797C556.068 375.828 556.381 376.979 556.381 378.25C556.381 379.51 556.068 380.661 555.443 381.703C554.829 382.745 554.001 383.578 552.959 384.203C551.928 384.818 550.777 385.125 549.506 385.125Z" fill="url(#paint2_linear_1_2)"/>
<path d="M577.525 359V391H568.838V359H577.525ZM590.393 377.5V391H581.768V367H589.955V371.562H590.205C590.726 370.042 591.643 368.849 592.955 367.984C594.278 367.12 595.82 366.688 597.58 366.688C599.278 366.688 600.752 367.078 602.002 367.859C603.262 368.63 604.236 369.693 604.924 371.047C605.622 372.401 605.965 373.948 605.955 375.687V391H597.33V377.5C597.34 376.312 597.038 375.38 596.424 374.703C595.82 374.026 594.976 373.688 593.893 373.688C593.184 373.688 592.564 373.844 592.033 374.156C591.512 374.458 591.111 374.896 590.83 375.469C590.549 376.031 590.403 376.708 590.393 377.5ZM624.588 367V373.25H608.525V367H624.588ZM611.588 391V366.312C611.588 364.333 611.942 362.693 612.65 361.391C613.359 360.089 614.359 359.115 615.65 358.469C616.942 357.823 618.463 357.5 620.213 357.5C621.307 357.5 622.369 357.583 623.4 357.75C624.442 357.917 625.213 358.062 625.713 358.187L624.463 364.375C624.15 364.281 623.786 364.208 623.369 364.156C622.952 364.094 622.588 364.062 622.275 364.062C621.463 364.062 620.916 364.234 620.635 364.578C620.354 364.922 620.213 365.375 620.213 365.937V391H611.588ZM638.686 391.437C636.123 391.437 633.915 390.948 632.061 389.969C630.217 388.979 628.795 387.562 627.795 385.719C626.805 383.865 626.311 381.646 626.311 379.063C626.311 376.583 626.811 374.417 627.811 372.562C628.811 370.708 630.222 369.266 632.045 368.234C633.868 367.203 636.019 366.688 638.498 366.688C640.311 366.688 641.951 366.969 643.42 367.531C644.889 368.094 646.144 368.911 647.186 369.984C648.227 371.047 649.029 372.339 649.592 373.859C650.154 375.38 650.436 377.094 650.436 379V381H628.998V376.25H642.498C642.488 375.562 642.311 374.958 641.967 374.437C641.633 373.906 641.18 373.495 640.607 373.203C640.045 372.901 639.404 372.75 638.686 372.75C637.988 372.75 637.347 372.901 636.764 373.203C636.18 373.495 635.712 373.901 635.357 374.422C635.014 374.943 634.831 375.552 634.811 376.25V381.375C634.811 382.146 634.972 382.833 635.295 383.438C635.618 384.042 636.081 384.516 636.686 384.859C637.29 385.203 638.019 385.375 638.873 385.375C639.467 385.375 640.008 385.292 640.498 385.125C640.998 384.958 641.425 384.719 641.779 384.406C642.133 384.083 642.394 383.698 642.561 383.25H650.436C650.165 384.917 649.524 386.365 648.514 387.594C647.503 388.813 646.165 389.76 644.498 390.437C642.842 391.104 640.904 391.437 638.686 391.437ZM653.955 391V367H662.33V371.562H662.58C663.018 369.875 663.71 368.641 664.658 367.859C665.617 367.078 666.736 366.688 668.018 366.688C668.393 366.688 668.762 366.719 669.127 366.781C669.502 366.833 669.861 366.911 670.205 367.016V374.375C669.778 374.229 669.252 374.12 668.627 374.047C668.002 373.974 667.465 373.937 667.018 373.937C666.174 373.937 665.413 374.13 664.736 374.516C664.07 374.891 663.544 375.422 663.158 376.109C662.773 376.786 662.58 377.583 662.58 378.5V391H653.955ZM681.658 377.5V391H673.033V367H681.221V371.562H681.471C681.992 370.042 682.908 368.849 684.221 367.984C685.544 367.12 687.085 366.688 688.846 366.688C690.544 366.688 692.018 367.078 693.268 367.859C694.528 368.63 695.502 369.693 696.189 371.047C696.887 372.401 697.231 373.948 697.221 375.687V391H688.596V377.5C688.606 376.312 688.304 375.38 687.689 374.703C687.085 374.026 686.242 373.688 685.158 373.688C684.45 373.688 683.83 373.844 683.299 374.156C682.778 374.458 682.377 374.896 682.096 375.469C681.814 376.031 681.669 376.708 681.658 377.5ZM708.166 391.375C706.635 391.375 705.281 391.125 704.104 390.625C702.937 390.115 702.02 389.344 701.354 388.312C700.687 387.281 700.354 385.969 700.354 384.375C700.354 383.062 700.577 381.943 701.025 381.016C701.473 380.078 702.098 379.312 702.9 378.719C703.702 378.125 704.635 377.672 705.697 377.359C706.77 377.047 707.926 376.844 709.166 376.75C710.51 376.646 711.588 376.521 712.4 376.375C713.223 376.219 713.817 376.005 714.182 375.734C714.546 375.453 714.729 375.083 714.729 374.625V374.562C714.729 373.937 714.489 373.458 714.01 373.125C713.531 372.792 712.916 372.625 712.166 372.625C711.343 372.625 710.671 372.807 710.15 373.172C709.64 373.526 709.333 374.073 709.229 374.812H701.291C701.395 373.354 701.859 372.01 702.682 370.781C703.515 369.542 704.729 368.552 706.322 367.813C707.916 367.063 709.906 366.688 712.291 366.688C714.01 366.688 715.551 366.891 716.916 367.297C718.281 367.693 719.442 368.25 720.4 368.969C721.359 369.677 722.088 370.51 722.588 371.469C723.098 372.417 723.354 373.448 723.354 374.562V391H715.291V387.625H715.104C714.624 388.521 714.041 389.245 713.354 389.797C712.676 390.349 711.9 390.75 711.025 391C710.161 391.25 709.208 391.375 708.166 391.375ZM710.979 385.937C711.635 385.937 712.249 385.802 712.822 385.531C713.406 385.26 713.88 384.87 714.244 384.359C714.609 383.849 714.791 383.229 714.791 382.5V380.5C714.562 380.594 714.317 380.682 714.057 380.766C713.807 380.849 713.536 380.927 713.244 381C712.963 381.073 712.661 381.141 712.338 381.203C712.025 381.266 711.697 381.323 711.354 381.375C710.687 381.479 710.14 381.651 709.713 381.891C709.296 382.12 708.984 382.406 708.775 382.75C708.577 383.083 708.479 383.458 708.479 383.875C708.479 384.542 708.713 385.052 709.182 385.406C709.65 385.76 710.249 385.937 710.979 385.937ZM736.1 359V391H727.475V359H736.1ZM745.182 391.5C743.973 391.5 742.937 391.078 742.072 390.234C741.218 389.38 740.796 388.344 740.807 387.125C740.796 385.937 741.218 384.922 742.072 384.078C742.937 383.234 743.973 382.812 745.182 382.812C746.327 382.812 747.338 383.234 748.213 384.078C749.098 384.922 749.546 385.937 749.557 387.125C749.546 387.937 749.333 388.677 748.916 389.344C748.51 390 747.979 390.526 747.322 390.922C746.666 391.307 745.952 391.5 745.182 391.5ZM762.932 391.313C761.223 391.313 759.65 390.865 758.213 389.969C756.786 389.073 755.64 387.714 754.775 385.891C753.921 384.068 753.494 381.771 753.494 379C753.494 376.104 753.942 373.75 754.838 371.937C755.744 370.125 756.911 368.797 758.338 367.953C759.775 367.109 761.286 366.688 762.869 366.688C764.057 366.688 765.098 366.896 765.994 367.312C766.89 367.719 767.64 368.266 768.244 368.953C768.848 369.63 769.307 370.375 769.619 371.187H769.744V359H778.369V391H769.807V387.062H769.619C769.286 387.875 768.807 388.604 768.182 389.25C767.567 389.885 766.817 390.391 765.932 390.766C765.057 391.13 764.057 391.313 762.932 391.313ZM766.119 384.688C766.911 384.688 767.588 384.458 768.15 384C768.723 383.531 769.161 382.875 769.463 382.031C769.775 381.177 769.932 380.167 769.932 379C769.932 377.812 769.775 376.797 769.463 375.953C769.161 375.099 768.723 374.448 768.15 374C767.588 373.542 766.911 373.312 766.119 373.312C765.327 373.312 764.65 373.542 764.088 374C763.536 374.448 763.109 375.099 762.807 375.953C762.515 376.797 762.369 377.812 762.369 379C762.369 380.187 762.515 381.208 762.807 382.062C763.109 382.906 763.536 383.557 764.088 384.016C764.65 384.464 765.327 384.688 766.119 384.688ZM794.104 391.437C791.541 391.437 789.333 390.948 787.479 389.969C785.635 388.979 784.213 387.562 783.213 385.719C782.223 383.865 781.729 381.646 781.729 379.063C781.729 376.583 782.229 374.417 783.229 372.562C784.229 370.708 785.64 369.266 787.463 368.234C789.286 367.203 791.437 366.688 793.916 366.688C795.729 366.688 797.369 366.969 798.838 367.531C800.307 368.094 801.562 368.911 802.604 369.984C803.645 371.047 804.447 372.339 805.01 373.859C805.572 375.38 805.854 377.094 805.854 379V381H784.416V376.25H797.916C797.906 375.562 797.729 374.958 797.385 374.437C797.051 373.906 796.598 373.495 796.025 373.203C795.463 372.901 794.822 372.75 794.104 372.75C793.406 372.75 792.765 372.901 792.182 373.203C791.598 373.495 791.13 373.901 790.775 374.422C790.432 374.943 790.249 375.552 790.229 376.25V381.375C790.229 382.146 790.39 382.833 790.713 383.438C791.036 384.042 791.499 384.516 792.104 384.859C792.708 385.203 793.437 385.375 794.291 385.375C794.885 385.375 795.426 385.292 795.916 385.125C796.416 384.958 796.843 384.719 797.197 384.406C797.551 384.083 797.812 383.698 797.979 383.25H805.854C805.583 384.917 804.942 386.365 803.932 387.594C802.921 388.813 801.583 389.76 799.916 390.437C798.26 391.104 796.322 391.437 794.104 391.437ZM832.959 367L824.896 391H814.896L806.834 367H815.896L819.771 382.875H820.021L823.896 367H832.959Z" fill="url(#paint3_linear_1_2)"/>
<path d="M850.506 385.125C849.245 385.125 848.094 384.818 847.053 384.203C846.011 383.578 845.178 382.745 844.553 381.703C843.938 380.661 843.631 379.51 843.631 378.25C843.631 376.979 843.938 375.828 844.553 374.797C845.178 373.755 846.011 372.927 847.053 372.312C848.094 371.687 849.245 371.375 850.506 371.375C851.777 371.375 852.928 371.687 853.959 372.312C855.001 372.927 855.829 373.755 856.443 374.797C857.068 375.828 857.381 376.979 857.381 378.25C857.381 379.51 857.068 380.661 856.443 381.703C855.829 382.745 855.001 383.578 853.959 384.203C852.928 384.818 851.777 385.125 850.506 385.125Z" fill="url(#paint4_linear_1_2)"/>
<path d="M887.025 369C886.942 367.958 886.551 367.146 885.854 366.562C885.166 365.979 884.119 365.687 882.713 365.687C881.817 365.687 881.083 365.797 880.51 366.016C879.947 366.224 879.531 366.51 879.26 366.875C878.989 367.24 878.848 367.656 878.838 368.125C878.817 368.51 878.885 368.859 879.041 369.172C879.208 369.474 879.468 369.75 879.822 370C880.176 370.24 880.63 370.458 881.182 370.656C881.734 370.854 882.39 371.031 883.15 371.187L885.775 371.75C887.546 372.125 889.062 372.62 890.322 373.234C891.583 373.849 892.614 374.573 893.416 375.406C894.218 376.229 894.807 377.156 895.182 378.187C895.567 379.219 895.765 380.344 895.775 381.562C895.765 383.667 895.239 385.448 894.197 386.906C893.156 388.365 891.666 389.474 889.729 390.234C887.801 390.995 885.484 391.375 882.775 391.375C879.994 391.375 877.567 390.964 875.494 390.141C873.432 389.318 871.827 388.052 870.682 386.344C869.546 384.625 868.973 382.427 868.963 379.75H877.213C877.265 380.729 877.51 381.552 877.947 382.219C878.385 382.885 878.999 383.391 879.791 383.734C880.593 384.078 881.546 384.25 882.65 384.25C883.577 384.25 884.354 384.135 884.979 383.906C885.604 383.677 886.077 383.359 886.4 382.953C886.723 382.547 886.89 382.083 886.9 381.562C886.89 381.073 886.729 380.646 886.416 380.281C886.114 379.906 885.614 379.573 884.916 379.281C884.218 378.979 883.275 378.698 882.088 378.437L878.9 377.75C876.067 377.135 873.833 376.109 872.197 374.672C870.572 373.224 869.765 371.25 869.775 368.75C869.765 366.719 870.307 364.943 871.4 363.422C872.505 361.891 874.031 360.698 875.979 359.844C877.937 358.99 880.182 358.562 882.713 358.562C885.296 358.562 887.531 358.995 889.416 359.859C891.301 360.724 892.755 361.943 893.775 363.516C894.807 365.078 895.327 366.906 895.338 369H887.025ZM899.205 400V367H907.768V371.187H907.955C908.268 370.375 908.726 369.63 909.33 368.953C909.934 368.266 910.684 367.719 911.58 367.312C912.476 366.896 913.518 366.688 914.705 366.688C916.288 366.688 917.794 367.109 919.221 367.953C920.658 368.797 921.825 370.125 922.721 371.937C923.627 373.75 924.08 376.104 924.08 379C924.08 381.771 923.648 384.068 922.783 385.891C921.929 387.714 920.783 389.073 919.346 389.969C917.919 390.865 916.351 391.313 914.643 391.313C913.518 391.313 912.512 391.13 911.627 390.766C910.752 390.391 910.002 389.885 909.377 389.25C908.762 388.604 908.288 387.875 907.955 387.062H907.83V400H899.205ZM907.643 379C907.643 380.167 907.794 381.177 908.096 382.031C908.408 382.875 908.846 383.531 909.408 384C909.981 384.458 910.663 384.688 911.455 384.688C912.247 384.688 912.919 384.464 913.471 384.016C914.033 383.557 914.46 382.906 914.752 382.062C915.054 381.208 915.205 380.187 915.205 379C915.205 377.812 915.054 376.797 914.752 375.953C914.46 375.099 914.033 374.448 913.471 374C912.919 373.542 912.247 373.312 911.455 373.312C910.663 373.312 909.981 373.542 909.408 374C908.846 374.448 908.408 375.099 908.096 375.953C907.794 376.797 907.643 377.812 907.643 379ZM927.693 391V367H936.318V391H927.693ZM932.006 364.5C930.839 364.5 929.839 364.115 929.006 363.344C928.173 362.573 927.756 361.646 927.756 360.562C927.756 359.479 928.173 358.552 929.006 357.781C929.839 357.01 930.839 356.625 932.006 356.625C933.183 356.625 934.183 357.01 935.006 357.781C935.839 358.552 936.256 359.479 936.256 360.562C936.256 361.646 935.839 362.573 935.006 363.344C934.183 364.115 933.183 364.5 932.006 364.5ZM940.713 391V367H949.088V371.562H949.338C949.775 369.875 950.468 368.641 951.416 367.859C952.374 367.078 953.494 366.688 954.775 366.688C955.15 366.688 955.52 366.719 955.885 366.781C956.26 366.833 956.619 366.911 956.963 367.016V374.375C956.536 374.229 956.01 374.12 955.385 374.047C954.76 373.974 954.223 373.937 953.775 373.937C952.932 373.937 952.171 374.13 951.494 374.516C950.827 374.891 950.301 375.422 949.916 376.109C949.531 376.786 949.338 377.583 949.338 378.5V391H940.713ZM967.541 385.312L967.604 375.063H968.729L974.541 367H984.229L974.479 379.562H972.041L967.541 385.312ZM959.791 391V359H968.416V391H959.791ZM974.604 391L969.104 381.5L974.729 375.375L984.479 391H974.604ZM997.049 391.437C994.445 391.437 992.215 390.922 990.361 389.891C988.507 388.849 987.085 387.401 986.096 385.547C985.106 383.682 984.611 381.521 984.611 379.063C984.611 376.604 985.106 374.448 986.096 372.594C987.085 370.729 988.507 369.281 990.361 368.25C992.215 367.208 994.445 366.688 997.049 366.688C999.653 366.688 1001.88 367.208 1003.74 368.25C1005.59 369.281 1007.01 370.729 1008 372.594C1008.99 374.448 1009.49 376.604 1009.49 379.063C1009.49 381.521 1008.99 383.682 1008 385.547C1007.01 387.401 1005.59 388.849 1003.74 389.891C1001.88 390.922 999.653 391.437 997.049 391.437ZM997.111 385.062C997.84 385.062 998.471 384.818 999.002 384.328C999.533 383.839 999.945 383.141 1000.24 382.234C1000.53 381.328 1000.67 380.25 1000.67 379C1000.67 377.74 1000.53 376.661 1000.24 375.766C999.945 374.859 999.533 374.161 999.002 373.672C998.471 373.182 997.84 372.937 997.111 372.937C996.34 372.937 995.679 373.182 995.127 373.672C994.575 374.161 994.153 374.859 993.861 375.766C993.57 376.661 993.424 377.74 993.424 379C993.424 380.25 993.57 381.328 993.861 382.234C994.153 383.141 994.575 383.839 995.127 384.328C995.679 384.818 996.34 385.062 997.111 385.062ZM1012.99 400V367H1021.55V371.187H1021.74C1022.05 370.375 1022.51 369.63 1023.11 368.953C1023.72 368.266 1024.47 367.719 1025.36 367.312C1026.26 366.896 1027.3 366.688 1028.49 366.688C1030.07 366.688 1031.57 367.109 1033 367.953C1034.44 368.797 1035.61 370.125 1036.5 371.937C1037.41 373.75 1037.86 376.104 1037.86 379C1037.86 381.771 1037.43 384.068 1036.56 385.891C1035.71 387.714 1034.56 389.073 1033.13 389.969C1031.7 390.865 1030.13 391.313 1028.42 391.313C1027.3 391.313 1026.29 391.13 1025.41 390.766C1024.53 390.391 1023.78 389.885 1023.16 389.25C1022.54 388.604 1022.07 387.875 1021.74 387.062H1021.61V400H1012.99ZM1021.42 379C1021.42 380.167 1021.57 381.177 1021.88 382.031C1022.19 382.875 1022.63 383.531 1023.19 384C1023.76 384.458 1024.44 384.688 1025.24 384.688C1026.03 384.688 1026.7 384.464 1027.25 384.016C1027.81 383.557 1028.24 382.906 1028.53 382.062C1028.84 381.208 1028.99 380.187 1028.99 379C1028.99 377.812 1028.84 376.797 1028.53 375.953C1028.24 375.099 1027.81 374.448 1027.25 374C1026.7 373.542 1026.03 373.312 1025.24 373.312C1024.44 373.312 1023.76 373.542 1023.19 374C1022.63 374.448 1022.19 375.099 1021.88 375.953C1021.57 376.797 1021.42 377.812 1021.42 379Z" fill="url(#paint5_linear_1_2)"/>
<defs>
<linearGradient id="paint0_linear_1_2" x1="640" y1="239" x2="640" y2="316" gradientUnits="userSpaceOnUse">
<stop offset="0.435" stop-color="#E6EDF3"/>
<stop offset="1" stop-color="#E6EDF3" stop-opacity="0.5"/>
</linearGradient>
<linearGradient id="paint1_linear_1_2" x1="386.5" y1="348" x2="386.5" y2="401" gradientUnits="userSpaceOnUse">
<stop offset="0.495" stop-color="#30363D"/>
<stop offset="1" stop-color="#30363D" stop-opacity="0.5"/>
</linearGradient>
<linearGradient id="paint2_linear_1_2" x1="549.5" y1="348" x2="549.5" y2="401" gradientUnits="userSpaceOnUse">
<stop offset="0.495" stop-color="#30363D"/>
<stop offset="1" stop-color="#30363D" stop-opacity="0.5"/>
</linearGradient>
<linearGradient id="paint3_linear_1_2" x1="700" y1="348" x2="700" y2="401" gradientUnits="userSpaceOnUse">
<stop offset="0.495" stop-color="#30363D"/>
<stop offset="1" stop-color="#30363D" stop-opacity="0.5"/>
</linearGradient>
<linearGradient id="paint4_linear_1_2" x1="850.5" y1="348" x2="850.5" y2="401" gradientUnits="userSpaceOnUse">
<stop offset="0.495" stop-color="#30363D"/>
<stop offset="1" stop-color="#30363D" stop-opacity="0.5"/>
</linearGradient>
<linearGradient id="paint5_linear_1_2" x1="953.5" y1="348" x2="953.5" y2="401" gradientUnits="userSpaceOnUse">
<stop offset="0.495" stop-color="#30363D"/>
<stop offset="1" stop-color="#30363D" stop-opacity="0.5"/>
</linearGradient>
</defs>
</svg>
