<svg width="1280" height="640" viewBox="0 0 1280 640" fill="none" xmlns="http://www.w3.org/2000/svg">
<path d="M465.91 269C465.788 267.485 465.22 266.303 464.205 265.455C463.205 264.606 461.682 264.182 459.637 264.182C458.334 264.182 457.266 264.341 456.432 264.659C455.614 264.962 455.008 265.379 454.614 265.909C454.22 266.439 454.016 267.045 454.001 267.727C453.97 268.288 454.069 268.795 454.296 269.25C454.538 269.689 454.917 270.091 455.432 270.455C455.948 270.803 456.607 271.121 457.41 271.409C458.213 271.697 459.167 271.955 460.273 272.182L464.091 273C466.667 273.545 468.872 274.265 470.705 275.159C472.538 276.053 474.038 277.106 475.205 278.318C476.372 279.515 477.228 280.864 477.773 282.364C478.334 283.864 478.622 285.5 478.637 287.273C478.622 290.333 477.857 292.924 476.341 295.045C474.826 297.167 472.66 298.78 469.841 299.886C467.038 300.992 463.667 301.545 459.728 301.545C455.682 301.545 452.152 300.947 449.137 299.75C446.137 298.553 443.804 296.712 442.137 294.227C440.485 291.727 439.652 288.53 439.637 284.636H451.637C451.713 286.061 452.069 287.258 452.705 288.227C453.341 289.197 454.235 289.932 455.387 290.432C456.554 290.932 457.94 291.182 459.546 291.182C460.895 291.182 462.023 291.015 462.932 290.682C463.841 290.348 464.531 289.886 465.001 289.295C465.47 288.705 465.713 288.03 465.728 287.273C465.713 286.561 465.478 285.939 465.023 285.409C464.584 284.864 463.857 284.379 462.841 283.955C461.826 283.515 460.455 283.106 458.728 282.727L454.091 281.727C449.97 280.833 446.72 279.341 444.341 277.25C441.978 275.144 440.804 272.273 440.819 268.636C440.804 265.682 441.591 263.098 443.182 260.886C444.788 258.659 447.008 256.924 449.841 255.682C452.69 254.439 455.955 253.818 459.637 253.818C463.395 253.818 466.645 254.447 469.387 255.705C472.129 256.962 474.243 258.735 475.728 261.023C477.228 263.295 477.985 265.955 478.001 269H465.91ZM491.433 301.545C489.206 301.545 487.236 301.182 485.524 300.455C483.827 299.712 482.493 298.591 481.524 297.091C480.554 295.591 480.069 293.682 480.069 291.364C480.069 289.455 480.395 287.826 481.046 286.477C481.698 285.114 482.607 284 483.774 283.136C484.94 282.273 486.296 281.614 487.842 281.159C489.403 280.705 491.084 280.409 492.887 280.273C494.842 280.121 496.41 279.939 497.592 279.727C498.789 279.5 499.653 279.189 500.183 278.795C500.713 278.386 500.978 277.848 500.978 277.182V277.091C500.978 276.182 500.63 275.485 499.933 275C499.236 274.515 498.342 274.273 497.251 274.273C496.054 274.273 495.077 274.538 494.319 275.068C493.577 275.583 493.13 276.379 492.978 277.455H481.433C481.584 275.333 482.259 273.379 483.456 271.591C484.668 269.788 486.433 268.348 488.751 267.273C491.069 266.182 493.963 265.636 497.433 265.636C499.933 265.636 502.175 265.932 504.16 266.523C506.145 267.098 507.834 267.909 509.228 268.955C510.622 269.985 511.683 271.197 512.41 272.591C513.153 273.97 513.524 275.47 513.524 277.091V301H501.796V296.091H501.524C500.827 297.394 499.978 298.447 498.978 299.25C497.993 300.053 496.865 300.636 495.592 301C494.334 301.364 492.948 301.545 491.433 301.545ZM495.524 293.636C496.478 293.636 497.372 293.439 498.206 293.045C499.054 292.652 499.743 292.083 500.274 291.341C500.804 290.598 501.069 289.697 501.069 288.636V285.727C500.736 285.864 500.38 285.992 500.001 286.114C499.637 286.235 499.243 286.348 498.819 286.455C498.41 286.561 497.971 286.659 497.501 286.75C497.046 286.841 496.569 286.924 496.069 287C495.1 287.152 494.304 287.402 493.683 287.75C493.077 288.083 492.622 288.5 492.319 289C492.031 289.485 491.887 290.03 491.887 290.636C491.887 291.606 492.228 292.348 492.91 292.864C493.592 293.379 494.463 293.636 495.524 293.636ZM517.598 301V266.091H529.507V272.727H529.871C530.598 270.545 531.841 268.818 533.598 267.545C535.356 266.273 537.447 265.636 539.871 265.636C542.325 265.636 544.439 266.288 546.212 267.591C547.984 268.879 549.053 270.591 549.416 272.727H549.78C550.371 270.591 551.628 268.879 553.553 267.591C555.477 266.288 557.734 265.636 560.325 265.636C563.674 265.636 566.386 266.712 568.462 268.864C570.553 271.015 571.598 273.879 571.598 277.455V301H559.053V280.636C559.053 279.106 558.666 277.909 557.894 277.045C557.121 276.167 556.083 275.727 554.78 275.727C553.492 275.727 552.469 276.167 551.712 277.045C550.969 277.909 550.598 279.106 550.598 280.636V301H538.598V280.636C538.598 279.106 538.212 277.909 537.439 277.045C536.666 276.167 535.628 275.727 534.325 275.727C533.462 275.727 532.719 275.924 532.098 276.318C531.477 276.712 530.992 277.28 530.644 278.023C530.31 278.75 530.144 279.621 530.144 280.636V301H517.598ZM598.502 285.727V266.091H611.047V301H599.138V294.364H598.775C598.017 296.591 596.691 298.333 594.797 299.591C592.903 300.833 590.653 301.455 588.047 301.455C585.608 301.455 583.472 300.894 581.638 299.773C579.82 298.652 578.403 297.106 577.388 295.136C576.388 293.167 575.881 290.909 575.866 288.364V266.091H588.411V285.727C588.426 287.455 588.866 288.811 589.729 289.795C590.608 290.78 591.835 291.273 593.411 291.273C594.456 291.273 595.358 291.053 596.116 290.614C596.888 290.159 597.479 289.523 597.888 288.705C598.313 287.871 598.517 286.879 598.502 285.727ZM632.235 301.636C628.508 301.636 625.296 300.924 622.599 299.5C619.917 298.061 617.849 296 616.394 293.318C614.955 290.621 614.235 287.394 614.235 283.636C614.235 280.03 614.963 276.879 616.417 274.182C617.872 271.485 619.925 269.386 622.576 267.886C625.228 266.386 628.357 265.636 631.963 265.636C634.599 265.636 636.985 266.045 639.122 266.864C641.258 267.682 643.084 268.871 644.599 270.432C646.114 271.977 647.281 273.856 648.099 276.068C648.917 278.28 649.326 280.773 649.326 283.545V286.455H618.144V279.545H637.781C637.766 278.545 637.508 277.667 637.008 276.909C636.523 276.136 635.864 275.538 635.031 275.114C634.213 274.674 633.281 274.455 632.235 274.455C631.22 274.455 630.288 274.674 629.44 275.114C628.591 275.538 627.91 276.129 627.394 276.886C626.894 277.644 626.629 278.53 626.599 279.545V287C626.599 288.121 626.834 289.121 627.304 290C627.773 290.879 628.447 291.568 629.326 292.068C630.205 292.568 631.266 292.818 632.508 292.818C633.372 292.818 634.16 292.697 634.872 292.455C635.599 292.212 636.22 291.864 636.735 291.409C637.251 290.939 637.629 290.379 637.872 289.727H649.326C648.932 292.152 648.001 294.258 646.531 296.045C645.061 297.818 643.114 299.197 640.69 300.182C638.281 301.152 635.463 301.636 632.235 301.636ZM665.071 254.455V301H652.526V254.455H665.071ZM692.009 301L678.282 254.455H692.373L698.737 283.091H699.1L706.646 254.455H717.737L725.282 283.182H725.646L732.009 254.455H746.1L732.373 301H720.282L712.373 275H712.009L704.1 301H692.009ZM754.118 301.545C751.891 301.545 749.921 301.182 748.209 300.455C746.512 299.712 745.178 298.591 744.209 297.091C743.239 295.591 742.754 293.682 742.754 291.364C742.754 289.455 743.08 287.826 743.731 286.477C744.383 285.114 745.292 284 746.459 283.136C747.625 282.273 748.981 281.614 750.527 281.159C752.088 280.705 753.769 280.409 755.572 280.273C757.527 280.121 759.095 279.939 760.277 279.727C761.474 279.5 762.338 279.189 762.868 278.795C763.398 278.386 763.663 277.848 763.663 277.182V277.091C763.663 276.182 763.315 275.485 762.618 275C761.921 274.515 761.027 274.273 759.936 274.273C758.739 274.273 757.762 274.538 757.004 275.068C756.262 275.583 755.815 276.379 755.663 277.455H744.118C744.269 275.333 744.944 273.379 746.141 271.591C747.353 269.788 749.118 268.348 751.436 267.273C753.754 266.182 756.648 265.636 760.118 265.636C762.618 265.636 764.86 265.932 766.845 266.523C768.83 267.098 770.519 267.909 771.913 268.955C773.307 269.985 774.368 271.197 775.095 272.591C775.838 273.97 776.209 275.47 776.209 277.091V301H764.481V296.091H764.209C763.512 297.394 762.663 298.447 761.663 299.25C760.678 300.053 759.55 300.636 758.277 301C757.019 301.364 755.633 301.545 754.118 301.545ZM758.209 293.636C759.163 293.636 760.057 293.439 760.891 293.045C761.739 292.652 762.428 292.083 762.959 291.341C763.489 290.598 763.754 289.697 763.754 288.636V285.727C763.421 285.864 763.065 285.992 762.686 286.114C762.322 286.235 761.928 286.348 761.504 286.455C761.095 286.561 760.656 286.659 760.186 286.75C759.731 286.841 759.254 286.924 758.754 287C757.785 287.152 756.989 287.402 756.368 287.75C755.762 288.083 755.307 288.5 755.004 289C754.716 289.485 754.572 290.03 754.572 290.636C754.572 291.606 754.913 292.348 755.595 292.864C756.277 293.379 757.148 293.636 758.209 293.636ZM780.283 301V266.091H792.465V272.727H792.829C793.465 270.273 794.472 268.477 795.851 267.341C797.245 266.205 798.874 265.636 800.738 265.636C801.283 265.636 801.821 265.682 802.351 265.773C802.897 265.848 803.419 265.962 803.919 266.114V276.818C803.298 276.606 802.533 276.447 801.624 276.341C800.715 276.235 799.935 276.182 799.283 276.182C798.056 276.182 796.95 276.462 795.965 277.023C794.995 277.568 794.23 278.341 793.669 279.341C793.109 280.326 792.829 281.485 792.829 282.818V301H780.283ZM816.749 301.455C814.265 301.455 811.977 300.803 809.886 299.5C807.81 298.197 806.143 296.22 804.886 293.568C803.643 290.917 803.022 287.576 803.022 283.545C803.022 279.333 803.674 275.909 804.977 273.273C806.295 270.636 807.992 268.705 810.068 267.477C812.159 266.25 814.355 265.636 816.659 265.636C818.386 265.636 819.901 265.939 821.204 266.545C822.507 267.136 823.598 267.932 824.477 268.932C825.355 269.917 826.022 271 826.477 272.182H826.659V254.455H839.204V301H826.749V295.273H826.477C825.992 296.455 825.295 297.515 824.386 298.455C823.492 299.379 822.401 300.114 821.113 300.659C819.84 301.189 818.386 301.455 816.749 301.455ZM821.386 291.818C822.537 291.818 823.522 291.485 824.34 290.818C825.174 290.136 825.81 289.182 826.249 287.955C826.704 286.712 826.931 285.242 826.931 283.545C826.931 281.818 826.704 280.341 826.249 279.114C825.81 277.871 825.174 276.924 824.34 276.273C823.522 275.606 822.537 275.273 821.386 275.273C820.234 275.273 819.249 275.606 818.431 276.273C817.628 276.924 817.007 277.871 816.568 279.114C816.143 280.341 815.931 281.818 815.931 283.545C815.931 285.273 816.143 286.758 816.568 288C817.007 289.227 817.628 290.174 818.431 290.841C819.249 291.492 820.234 291.818 821.386 291.818Z" fill="url(#paint0_linear_1_2)"/>
<path d="M180 332H1100" stroke="url(#paint1_linear_1_2)" stroke-width="4" stroke-linecap="round"/>
<path d="M257.623 391H245.311V359H257.498C260.79 359 263.633 359.641 266.029 360.922C268.436 362.193 270.29 364.026 271.592 366.422C272.904 368.807 273.561 371.667 273.561 375C273.561 378.333 272.91 381.198 271.607 383.594C270.305 385.979 268.462 387.812 266.076 389.094C263.691 390.365 260.873 391 257.623 391ZM253.998 383.625H257.311C258.894 383.625 260.243 383.37 261.357 382.859C262.482 382.349 263.337 381.469 263.92 380.219C264.514 378.969 264.811 377.229 264.811 375C264.811 372.771 264.508 371.031 263.904 369.781C263.311 368.531 262.436 367.651 261.279 367.141C260.133 366.63 258.727 366.375 257.061 366.375H253.998V383.625ZM289.205 391.437C286.643 391.437 284.434 390.948 282.58 389.969C280.736 388.979 279.314 387.562 278.314 385.719C277.325 383.865 276.83 381.646 276.83 379.063C276.83 376.583 277.33 374.417 278.33 372.562C279.33 370.708 280.742 369.266 282.564 368.234C284.387 367.203 286.538 366.688 289.018 366.688C290.83 366.688 292.471 366.969 293.939 367.531C295.408 368.094 296.663 368.911 297.705 369.984C298.747 371.047 299.549 372.339 300.111 373.859C300.674 375.38 300.955 377.094 300.955 379V381H279.518V376.25H293.018C293.007 375.562 292.83 374.958 292.486 374.437C292.153 373.906 291.7 373.495 291.127 373.203C290.564 372.901 289.924 372.75 289.205 372.75C288.507 372.75 287.867 372.901 287.283 373.203C286.7 373.495 286.231 373.901 285.877 374.422C285.533 374.943 285.351 375.552 285.33 376.25V381.375C285.33 382.146 285.492 382.833 285.814 383.438C286.137 384.042 286.601 384.516 287.205 384.859C287.809 385.203 288.538 385.375 289.393 385.375C289.986 385.375 290.528 385.292 291.018 385.125C291.518 384.958 291.945 384.719 292.299 384.406C292.653 384.083 292.913 383.698 293.08 383.25H300.955C300.684 384.917 300.044 386.365 299.033 387.594C298.023 388.813 296.684 389.76 295.018 390.437C293.361 391.104 291.424 391.437 289.205 391.437ZM328.061 367L319.998 391H309.998L301.936 367H310.998L314.873 382.875H315.123L318.998 367H328.061ZM341.283 391.437C338.721 391.437 336.512 390.948 334.658 389.969C332.814 388.979 331.393 387.562 330.393 385.719C329.403 383.865 328.908 381.646 328.908 379.063C328.908 376.583 329.408 374.417 330.408 372.562C331.408 370.708 332.82 369.266 334.643 368.234C336.465 367.203 338.617 366.688 341.096 366.688C342.908 366.688 344.549 366.969 346.018 367.531C347.486 368.094 348.742 368.911 349.783 369.984C350.825 371.047 351.627 372.339 352.189 373.859C352.752 375.38 353.033 377.094 353.033 379V381H331.596V376.25H345.096C345.085 375.562 344.908 374.958 344.564 374.437C344.231 373.906 343.778 373.495 343.205 373.203C342.643 372.901 342.002 372.75 341.283 372.75C340.585 372.75 339.945 372.901 339.361 373.203C338.778 373.495 338.309 373.901 337.955 374.422C337.611 374.943 337.429 375.552 337.408 376.25V381.375C337.408 382.146 337.57 382.833 337.893 383.438C338.215 384.042 338.679 384.516 339.283 384.859C339.887 385.203 340.617 385.375 341.471 385.375C342.064 385.375 342.606 385.292 343.096 385.125C343.596 384.958 344.023 384.719 344.377 384.406C344.731 384.083 344.992 383.698 345.158 383.25H353.033C352.762 384.917 352.122 386.365 351.111 387.594C350.101 388.813 348.762 389.76 347.096 390.437C345.439 391.104 343.502 391.437 341.283 391.437ZM365.178 359V391H356.553V359H365.178ZM381.135 391.437C378.531 391.437 376.301 390.922 374.447 389.891C372.593 388.849 371.171 387.401 370.182 385.547C369.192 383.682 368.697 381.521 368.697 379.063C368.697 376.604 369.192 374.448 370.182 372.594C371.171 370.729 372.593 369.281 374.447 368.25C376.301 367.208 378.531 366.688 381.135 366.688C383.739 366.688 385.968 367.208 387.822 368.25C389.676 369.281 391.098 370.729 392.088 372.594C393.077 374.448 393.572 376.604 393.572 379.063C393.572 381.521 393.077 383.682 392.088 385.547C391.098 387.401 389.676 388.849 387.822 389.891C385.968 390.922 383.739 391.437 381.135 391.437ZM381.197 385.062C381.926 385.062 382.557 384.818 383.088 384.328C383.619 383.839 384.031 383.141 384.322 382.234C384.614 381.328 384.76 380.25 384.76 379C384.76 377.74 384.614 376.661 384.322 375.766C384.031 374.859 383.619 374.161 383.088 373.672C382.557 373.182 381.926 372.937 381.197 372.937C380.426 372.937 379.765 373.182 379.213 373.672C378.661 374.161 378.239 374.859 377.947 375.766C377.656 376.661 377.51 377.74 377.51 379C377.51 380.25 377.656 381.328 377.947 382.234C378.239 383.141 378.661 383.839 379.213 384.328C379.765 384.818 380.426 385.062 381.197 385.062ZM397.072 400V367H405.635V371.187H405.822C406.135 370.375 406.593 369.63 407.197 368.953C407.801 368.266 408.551 367.719 409.447 367.312C410.343 366.896 411.385 366.688 412.572 366.688C414.156 366.688 415.661 367.109 417.088 367.953C418.525 368.797 419.692 370.125 420.588 371.937C421.494 373.75 421.947 376.104 421.947 379C421.947 381.771 421.515 384.068 420.65 385.891C419.796 387.714 418.65 389.073 417.213 389.969C415.786 390.865 414.218 391.313 412.51 391.313C411.385 391.313 410.38 391.13 409.494 390.766C408.619 390.391 407.869 389.885 407.244 389.25C406.63 388.604 406.156 387.875 405.822 387.062H405.697V400H397.072ZM405.51 379C405.51 380.167 405.661 381.177 405.963 382.031C406.275 382.875 406.713 383.531 407.275 384C407.848 384.458 408.531 384.688 409.322 384.688C410.114 384.688 410.786 384.464 411.338 384.016C411.9 383.557 412.327 382.906 412.619 382.062C412.921 381.208 413.072 380.187 413.072 379C413.072 377.812 412.921 376.797 412.619 375.953C412.327 375.099 411.9 374.448 411.338 374C410.786 373.542 410.114 373.312 409.322 373.312C408.531 373.312 407.848 373.542 407.275 374C406.713 374.448 406.275 375.099 405.963 375.953C405.661 376.797 405.51 377.812 405.51 379ZM437.061 391.437C434.498 391.437 432.29 390.948 430.436 389.969C428.592 388.979 427.17 387.562 426.17 385.719C425.18 383.865 424.686 381.646 424.686 379.063C424.686 376.583 425.186 374.417 426.186 372.562C427.186 370.708 428.597 369.266 430.42 368.234C432.243 367.203 434.394 366.688 436.873 366.688C438.686 366.688 440.326 366.969 441.795 367.531C443.264 368.094 444.519 368.911 445.561 369.984C446.602 371.047 447.404 372.339 447.967 373.859C448.529 375.38 448.811 377.094 448.811 379V381H427.373V376.25H440.873C440.863 375.562 440.686 374.958 440.342 374.437C440.008 373.906 439.555 373.495 438.982 373.203C438.42 372.901 437.779 372.75 437.061 372.75C436.363 372.75 435.722 372.901 435.139 373.203C434.555 373.495 434.087 373.901 433.732 374.422C433.389 374.943 433.206 375.552 433.186 376.25V381.375C433.186 382.146 433.347 382.833 433.67 383.438C433.993 384.042 434.456 384.516 435.061 384.859C435.665 385.203 436.394 385.375 437.248 385.375C437.842 385.375 438.383 385.292 438.873 385.125C439.373 384.958 439.8 384.719 440.154 384.406C440.508 384.083 440.769 383.698 440.936 383.25H448.811C448.54 384.917 447.899 386.365 446.889 387.594C445.878 388.813 444.54 389.76 442.873 390.437C441.217 391.104 439.279 391.437 437.061 391.437ZM452.33 391V367H460.705V371.562H460.955C461.393 369.875 462.085 368.641 463.033 367.859C463.992 367.078 465.111 366.688 466.393 366.688C466.768 366.688 467.137 366.719 467.502 366.781C467.877 366.833 468.236 366.911 468.58 367.016V374.375C468.153 374.229 467.627 374.12 467.002 374.047C466.377 373.974 465.84 373.937 465.393 373.937C464.549 373.937 463.788 374.13 463.111 374.516C462.445 374.891 461.919 375.422 461.533 376.109C461.148 376.786 460.955 377.583 460.955 378.5V391H452.33ZM494.549 367V373.25H478.486V367H494.549ZM481.549 391V366.312C481.549 364.333 481.903 362.693 482.611 361.391C483.32 360.089 484.32 359.115 485.611 358.469C486.903 357.823 488.424 357.5 490.174 357.5C491.268 357.5 492.33 357.583 493.361 357.75C494.403 357.917 495.174 358.062 495.674 358.187L494.424 364.375C494.111 364.281 493.747 364.208 493.33 364.156C492.913 364.094 492.549 364.062 492.236 364.062C491.424 364.062 490.877 364.234 490.596 364.578C490.314 364.922 490.174 365.375 490.174 365.937V391H481.549ZM508.709 391.437C506.105 391.437 503.876 390.922 502.021 389.891C500.167 388.849 498.745 387.401 497.756 385.547C496.766 383.682 496.271 381.521 496.271 379.063C496.271 376.604 496.766 374.448 497.756 372.594C498.745 370.729 500.167 369.281 502.021 368.25C503.876 367.208 506.105 366.688 508.709 366.688C511.313 366.688 513.542 367.208 515.396 368.25C517.251 369.281 518.673 370.729 519.662 372.594C520.652 374.448 521.146 376.604 521.146 379.063C521.146 381.521 520.652 383.682 519.662 385.547C518.673 387.401 517.251 388.849 515.396 389.891C513.542 390.922 511.313 391.437 508.709 391.437ZM508.771 385.062C509.501 385.062 510.131 384.818 510.662 384.328C511.193 383.839 511.605 383.141 511.896 382.234C512.188 381.328 512.334 380.25 512.334 379C512.334 377.74 512.188 376.661 511.896 375.766C511.605 374.859 511.193 374.161 510.662 373.672C510.131 373.182 509.501 372.937 508.771 372.937C508.001 372.937 507.339 373.182 506.787 373.672C506.235 374.161 505.813 374.859 505.521 375.766C505.23 376.661 505.084 377.74 505.084 379C505.084 380.25 505.23 381.328 505.521 382.234C505.813 383.141 506.235 383.839 506.787 384.328C507.339 384.818 508.001 385.062 508.771 385.062ZM524.646 391V367H533.021V371.562H533.271C533.709 369.875 534.402 368.641 535.35 367.859C536.308 367.078 537.428 366.688 538.709 366.688C539.084 366.688 539.454 366.719 539.818 366.781C540.193 366.833 540.553 366.911 540.896 367.016V374.375C540.469 374.229 539.943 374.12 539.318 374.047C538.693 373.974 538.157 373.937 537.709 373.937C536.865 373.937 536.105 374.13 535.428 374.516C534.761 374.891 534.235 375.422 533.85 376.109C533.464 376.786 533.271 377.583 533.271 378.5V391H524.646ZM569.615 369C569.532 367.958 569.141 367.146 568.443 366.562C567.756 365.979 566.709 365.687 565.303 365.687C564.407 365.687 563.673 365.797 563.1 366.016C562.537 366.224 562.12 366.51 561.85 366.875C561.579 367.24 561.438 367.656 561.428 368.125C561.407 368.51 561.475 368.859 561.631 369.172C561.798 369.474 562.058 369.75 562.412 370C562.766 370.24 563.219 370.458 563.771 370.656C564.324 370.854 564.98 371.031 565.74 371.187L568.365 371.75C570.136 372.125 571.652 372.62 572.912 373.234C574.173 373.849 575.204 374.573 576.006 375.406C576.808 376.229 577.396 377.156 577.771 378.187C578.157 379.219 578.355 380.344 578.365 381.562C578.355 383.667 577.829 385.448 576.787 386.906C575.745 388.365 574.256 389.474 572.318 390.234C570.391 390.995 568.074 391.375 565.365 391.375C562.584 391.375 560.157 390.964 558.084 390.141C556.021 389.318 554.417 388.052 553.271 386.344C552.136 384.625 551.563 382.427 551.553 379.75H559.803C559.855 380.729 560.1 381.552 560.537 382.219C560.975 382.885 561.589 383.391 562.381 383.734C563.183 384.078 564.136 384.25 565.24 384.25C566.167 384.25 566.943 384.135 567.568 383.906C568.193 383.677 568.667 383.359 568.99 382.953C569.313 382.547 569.48 382.083 569.49 381.562C569.48 381.073 569.318 380.646 569.006 380.281C568.704 379.906 568.204 379.573 567.506 379.281C566.808 378.979 565.865 378.698 564.678 378.437L561.49 377.75C558.657 377.135 556.423 376.109 554.787 374.672C553.162 373.224 552.355 371.25 552.365 368.75C552.355 366.719 552.896 364.943 553.99 363.422C555.094 361.891 556.62 360.698 558.568 359.844C560.527 358.99 562.771 358.562 565.303 358.562C567.886 358.562 570.12 358.995 572.006 359.859C573.891 360.724 575.344 361.943 576.365 363.516C577.396 365.078 577.917 366.906 577.928 369H569.615ZM581.795 400V367H590.357V371.187H590.545C590.857 370.375 591.316 369.63 591.92 368.953C592.524 368.266 593.274 367.719 594.17 367.312C595.066 366.896 596.107 366.688 597.295 366.688C598.878 366.688 600.383 367.109 601.811 367.953C603.248 368.797 604.415 370.125 605.311 371.937C606.217 373.75 606.67 376.104 606.67 379C606.67 381.771 606.238 384.068 605.373 385.891C604.519 387.714 603.373 389.073 601.936 389.969C600.508 390.865 598.941 391.313 597.232 391.313C596.107 391.313 595.102 391.13 594.217 390.766C593.342 390.391 592.592 389.885 591.967 389.25C591.352 388.604 590.878 387.875 590.545 387.062H590.42V400H581.795ZM590.232 379C590.232 380.167 590.383 381.177 590.686 382.031C590.998 382.875 591.436 383.531 591.998 384C592.571 384.458 593.253 384.688 594.045 384.688C594.837 384.688 595.508 384.464 596.061 384.016C596.623 383.557 597.05 382.906 597.342 382.062C597.644 381.208 597.795 380.187 597.795 379C597.795 377.812 597.644 376.797 597.342 375.953C597.05 375.099 596.623 374.448 596.061 374C595.508 373.542 594.837 373.312 594.045 373.312C593.253 373.312 592.571 373.542 591.998 374C591.436 374.448 590.998 375.099 590.686 375.953C590.383 376.797 590.232 377.812 590.232 379ZM610.283 391V367H618.908V391H610.283ZM614.596 364.5C613.429 364.5 612.429 364.115 611.596 363.344C610.762 362.573 610.346 361.646 610.346 360.562C610.346 359.479 610.762 358.552 611.596 357.781C612.429 357.01 613.429 356.625 614.596 356.625C615.773 356.625 616.773 357.01 617.596 357.781C618.429 358.552 618.846 359.479 618.846 360.562C618.846 361.646 618.429 362.573 617.596 363.344C616.773 364.115 615.773 364.5 614.596 364.5ZM623.303 391V367H631.678V371.562H631.928C632.365 369.875 633.058 368.641 634.006 367.859C634.964 367.078 636.084 366.688 637.365 366.688C637.74 366.688 638.11 366.719 638.475 366.781C638.85 366.833 639.209 366.911 639.553 367.016V374.375C639.126 374.229 638.6 374.12 637.975 374.047C637.35 373.974 636.813 373.937 636.365 373.937C635.521 373.937 634.761 374.13 634.084 374.516C633.417 374.891 632.891 375.422 632.506 376.109C632.12 376.786 631.928 377.583 631.928 378.5V391H623.303ZM650.131 385.312L650.193 375.063H651.318L657.131 367H666.818L657.068 379.562H654.631L650.131 385.312ZM642.381 391V359H651.006V391H642.381ZM657.193 391L651.693 381.5L657.318 375.375L667.068 391H657.193ZM679.639 391.437C677.035 391.437 674.805 390.922 672.951 389.891C671.097 388.849 669.675 387.401 668.686 385.547C667.696 383.682 667.201 381.521 667.201 379.063C667.201 376.604 667.696 374.448 668.686 372.594C669.675 370.729 671.097 369.281 672.951 368.25C674.805 367.208 677.035 366.688 679.639 366.688C682.243 366.688 684.472 367.208 686.326 368.25C688.18 369.281 689.602 370.729 690.592 372.594C691.581 374.448 692.076 376.604 692.076 379.063C692.076 381.521 691.581 383.682 690.592 385.547C689.602 387.401 688.18 388.849 686.326 389.891C684.472 390.922 682.243 391.437 679.639 391.437ZM679.701 385.062C680.43 385.062 681.061 384.818 681.592 384.328C682.123 383.839 682.535 383.141 682.826 382.234C683.118 381.328 683.264 380.25 683.264 379C683.264 377.74 683.118 376.661 682.826 375.766C682.535 374.859 682.123 374.161 681.592 373.672C681.061 373.182 680.43 372.937 679.701 372.937C678.93 372.937 678.269 373.182 677.717 373.672C677.165 374.161 676.743 374.859 676.451 375.766C676.16 376.661 676.014 377.74 676.014 379C676.014 380.25 676.16 381.328 676.451 382.234C676.743 383.141 677.165 383.839 677.717 384.328C678.269 384.818 678.93 385.062 679.701 385.062ZM695.576 400V367H704.139V371.187H704.326C704.639 370.375 705.097 369.63 705.701 368.953C706.305 368.266 707.055 367.719 707.951 367.312C708.847 366.896 709.889 366.688 711.076 366.688C712.66 366.688 714.165 367.109 715.592 367.953C717.029 368.797 718.196 370.125 719.092 371.937C719.998 373.75 720.451 376.104 720.451 379C720.451 381.771 720.019 384.068 719.154 385.891C718.3 387.714 717.154 389.073 715.717 389.969C714.29 390.865 712.722 391.313 711.014 391.313C709.889 391.313 708.883 391.13 707.998 390.766C707.123 390.391 706.373 389.885 705.748 389.25C705.133 388.604 704.66 387.875 704.326 387.062H704.201V400H695.576ZM704.014 379C704.014 380.167 704.165 381.177 704.467 382.031C704.779 382.875 705.217 383.531 705.779 384C706.352 384.458 707.035 384.688 707.826 384.688C708.618 384.688 709.29 384.464 709.842 384.016C710.404 383.557 710.831 382.906 711.123 382.062C711.425 381.208 711.576 380.187 711.576 379C711.576 377.812 711.425 376.797 711.123 375.953C710.831 375.099 710.404 374.448 709.842 374C709.29 373.542 708.618 373.312 707.826 373.312C707.035 373.312 706.352 373.542 705.779 374C705.217 374.448 704.779 375.099 704.467 375.953C704.165 376.797 704.014 377.812 704.014 379ZM743.143 391.5C740.851 391.5 738.877 391.094 737.221 390.281C735.564 389.469 734.294 388.38 733.408 387.016C732.523 385.651 732.08 384.146 732.08 382.5C732.08 381.302 732.309 380.245 732.768 379.328C733.226 378.401 733.867 377.552 734.689 376.781C735.512 376.01 736.476 375.25 737.58 374.5L744.83 370C745.559 369.542 746.054 369.068 746.314 368.578C746.575 368.078 746.705 367.635 746.705 367.25C746.705 366.74 746.518 366.286 746.143 365.891C745.768 365.495 745.184 365.302 744.393 365.313C743.903 365.313 743.481 365.406 743.127 365.594C742.773 365.771 742.497 366.021 742.299 366.344C742.111 366.667 742.018 367.052 742.018 367.5C742.018 368.115 742.195 368.745 742.549 369.391C742.903 370.026 743.387 370.714 744.002 371.453C744.617 372.193 745.309 373.021 746.08 373.937L761.58 391H752.955L739.955 377.25C739.32 376.573 738.617 375.745 737.846 374.766C737.075 373.776 736.408 372.661 735.846 371.422C735.294 370.182 735.018 368.833 735.018 367.375C735.018 365.75 735.408 364.266 736.189 362.922C736.971 361.578 738.064 360.505 739.471 359.703C740.877 358.901 742.518 358.5 744.393 358.5C746.184 358.5 747.726 358.87 749.018 359.609C750.32 360.349 751.32 361.333 752.018 362.563C752.726 363.792 753.08 365.146 753.08 366.625C753.08 368.115 752.71 369.505 751.971 370.797C751.242 372.089 750.195 373.219 748.83 374.187L742.205 378.875C741.695 379.229 741.252 379.635 740.877 380.094C740.512 380.552 740.33 381.146 740.33 381.875C740.33 382.479 740.471 382.995 740.752 383.422C741.033 383.849 741.429 384.177 741.939 384.406C742.46 384.635 743.07 384.75 743.768 384.75C744.83 384.75 745.893 384.495 746.955 383.984C748.028 383.464 749.007 382.74 749.893 381.812C750.778 380.875 751.486 379.771 752.018 378.5C752.559 377.219 752.83 375.823 752.83 374.312H759.643C759.643 376.167 759.45 377.953 759.064 379.672C758.679 381.391 758.059 382.964 757.205 384.391C756.351 385.818 755.226 387.021 753.83 388C753.393 388.219 752.965 388.427 752.549 388.625C752.132 388.823 751.705 389.031 751.268 389.25C749.986 390.073 748.648 390.656 747.252 391C745.856 391.333 744.486 391.5 743.143 391.5ZM772.275 391V367H780.9V391H772.275ZM776.588 364.5C775.421 364.5 774.421 364.115 773.588 363.344C772.755 362.573 772.338 361.646 772.338 360.562C772.338 359.479 772.755 358.552 773.588 357.781C774.421 357.01 775.421 356.625 776.588 356.625C777.765 356.625 778.765 357.01 779.588 357.781C780.421 358.552 780.838 359.479 780.838 360.562C780.838 361.646 780.421 362.573 779.588 363.344C778.765 364.115 777.765 364.5 776.588 364.5ZM793.92 377.5V391H785.295V367H793.482V371.562H793.732C794.253 370.042 795.17 368.849 796.482 367.984C797.805 367.12 799.347 366.688 801.107 366.688C802.805 366.688 804.279 367.078 805.529 367.859C806.79 368.63 807.764 369.693 808.451 371.047C809.149 372.401 809.493 373.948 809.482 375.687V391H800.857V377.5C800.868 376.312 800.566 375.38 799.951 374.703C799.347 374.026 798.503 373.688 797.42 373.688C796.712 373.688 796.092 373.844 795.561 374.156C795.04 374.458 794.639 374.896 794.357 375.469C794.076 376.031 793.93 376.708 793.92 377.5ZM828.115 367V373.25H812.053V367H828.115ZM815.115 391V366.312C815.115 364.333 815.469 362.693 816.178 361.391C816.886 360.089 817.886 359.115 819.178 358.469C820.469 357.823 821.99 357.5 823.74 357.5C824.834 357.5 825.896 357.583 826.928 357.75C827.969 357.917 828.74 358.062 829.24 358.187L827.99 364.375C827.678 364.281 827.313 364.208 826.896 364.156C826.48 364.094 826.115 364.062 825.803 364.062C824.99 364.062 824.443 364.234 824.162 364.578C823.881 364.922 823.74 365.375 823.74 365.937V391H815.115ZM842.213 391.437C839.65 391.437 837.442 390.948 835.588 389.969C833.744 388.979 832.322 387.562 831.322 385.719C830.333 383.865 829.838 381.646 829.838 379.063C829.838 376.583 830.338 374.417 831.338 372.562C832.338 370.708 833.749 369.266 835.572 368.234C837.395 367.203 839.546 366.688 842.025 366.688C843.838 366.688 845.479 366.969 846.947 367.531C848.416 368.094 849.671 368.911 850.713 369.984C851.755 371.047 852.557 372.339 853.119 373.859C853.682 375.38 853.963 377.094 853.963 379V381H832.525V376.25H846.025C846.015 375.562 845.838 374.958 845.494 374.437C845.161 373.906 844.708 373.495 844.135 373.203C843.572 372.901 842.932 372.75 842.213 372.75C841.515 372.75 840.874 372.901 840.291 373.203C839.708 373.495 839.239 373.901 838.885 374.422C838.541 374.943 838.359 375.552 838.338 376.25V381.375C838.338 382.146 838.499 382.833 838.822 383.438C839.145 384.042 839.609 384.516 840.213 384.859C840.817 385.203 841.546 385.375 842.4 385.375C842.994 385.375 843.536 385.292 844.025 385.125C844.525 384.958 844.952 384.719 845.307 384.406C845.661 384.083 845.921 383.698 846.088 383.25H853.963C853.692 384.917 853.051 386.365 852.041 387.594C851.031 388.813 849.692 389.76 848.025 390.437C846.369 391.104 844.432 391.437 842.213 391.437ZM857.482 391V367H865.857V371.562H866.107C866.545 369.875 867.238 368.641 868.186 367.859C869.144 367.078 870.264 366.688 871.545 366.688C871.92 366.688 872.29 366.719 872.654 366.781C873.029 366.833 873.389 366.911 873.732 367.016V374.375C873.305 374.229 872.779 374.12 872.154 374.047C871.529 373.974 870.993 373.937 870.545 373.937C869.701 373.937 868.941 374.13 868.264 374.516C867.597 374.891 867.071 375.422 866.686 376.109C866.3 376.786 866.107 377.583 866.107 378.5V391H857.482ZM885.186 377.5V391H876.561V367H884.748V371.562H884.998C885.519 370.042 886.436 368.849 887.748 367.984C889.071 367.12 890.613 366.688 892.373 366.688C894.071 366.688 895.545 367.078 896.795 367.859C898.055 368.63 899.029 369.693 899.717 371.047C900.415 372.401 900.758 373.948 900.748 375.687V391H892.123V377.5C892.133 376.312 891.831 375.38 891.217 374.703C890.613 374.026 889.769 373.688 888.686 373.688C887.977 373.688 887.357 373.844 886.826 374.156C886.305 374.458 885.904 374.896 885.623 375.469C885.342 376.031 885.196 376.708 885.186 377.5ZM911.693 391.375C910.162 391.375 908.808 391.125 907.631 390.625C906.464 390.115 905.548 389.344 904.881 388.312C904.214 387.281 903.881 385.969 903.881 384.375C903.881 383.062 904.105 381.943 904.553 381.016C905.001 380.078 905.626 379.312 906.428 378.719C907.23 378.125 908.162 377.672 909.225 377.359C910.298 377.047 911.454 376.844 912.693 376.75C914.037 376.646 915.115 376.521 915.928 376.375C916.751 376.219 917.344 376.005 917.709 375.734C918.074 375.453 918.256 375.083 918.256 374.625V374.562C918.256 373.937 918.016 373.458 917.537 373.125C917.058 372.792 916.443 372.625 915.693 372.625C914.87 372.625 914.199 372.807 913.678 373.172C913.167 373.526 912.86 374.073 912.756 374.812H904.818C904.923 373.354 905.386 372.01 906.209 370.781C907.042 369.542 908.256 368.552 909.85 367.813C911.443 367.063 913.433 366.688 915.818 366.688C917.537 366.688 919.079 366.891 920.443 367.297C921.808 367.693 922.969 368.25 923.928 368.969C924.886 369.677 925.615 370.51 926.115 371.469C926.626 372.417 926.881 373.448 926.881 374.562V391H918.818V387.625H918.631C918.152 388.521 917.568 389.245 916.881 389.797C916.204 390.349 915.428 390.75 914.553 391C913.688 391.25 912.735 391.375 911.693 391.375ZM914.506 385.937C915.162 385.937 915.777 385.802 916.35 385.531C916.933 385.26 917.407 384.87 917.771 384.359C918.136 383.849 918.318 383.229 918.318 382.5V380.5C918.089 380.594 917.844 380.682 917.584 380.766C917.334 380.849 917.063 380.927 916.771 381C916.49 381.073 916.188 381.141 915.865 381.203C915.553 381.266 915.225 381.323 914.881 381.375C914.214 381.479 913.667 381.651 913.24 381.891C912.824 382.12 912.511 382.406 912.303 382.75C912.105 383.083 912.006 383.458 912.006 383.875C912.006 384.542 912.24 385.052 912.709 385.406C913.178 385.76 913.777 385.937 914.506 385.937ZM939.627 359V391H931.002V359H939.627ZM948.709 381.344C947.501 381.344 946.464 380.922 945.6 380.078C944.745 379.224 944.324 378.187 944.334 376.969C944.324 375.781 944.745 374.766 945.6 373.922C946.464 373.078 947.501 372.656 948.709 372.656C949.855 372.656 950.865 373.078 951.74 373.922C952.626 374.766 953.074 375.781 953.084 376.969C953.074 377.781 952.86 378.521 952.443 379.188C952.037 379.844 951.506 380.37 950.85 380.766C950.193 381.151 949.48 381.344 948.709 381.344ZM966.459 391.313C964.751 391.313 963.178 390.865 961.74 389.969C960.313 389.073 959.167 387.714 958.303 385.891C957.449 384.068 957.021 381.771 957.021 379C957.021 376.104 957.469 373.75 958.365 371.937C959.271 370.125 960.438 368.797 961.865 367.953C963.303 367.109 964.813 366.688 966.396 366.688C967.584 366.688 968.626 366.896 969.521 367.312C970.417 367.719 971.167 368.266 971.771 368.953C972.376 369.63 972.834 370.375 973.146 371.187H973.271V359H981.896V391H973.334V387.062H973.146C972.813 387.875 972.334 388.604 971.709 389.25C971.094 389.885 970.344 390.391 969.459 390.766C968.584 391.13 967.584 391.313 966.459 391.313ZM969.646 384.688C970.438 384.688 971.115 384.458 971.678 384C972.251 383.531 972.688 382.875 972.99 382.031C973.303 381.177 973.459 380.167 973.459 379C973.459 377.812 973.303 376.797 972.99 375.953C972.688 375.099 972.251 374.448 971.678 374C971.115 373.542 970.438 373.312 969.646 373.312C968.855 373.312 968.178 373.542 967.615 374C967.063 374.448 966.636 375.099 966.334 375.953C966.042 376.797 965.896 377.812 965.896 379C965.896 380.187 966.042 381.208 966.334 382.062C966.636 382.906 967.063 383.557 967.615 384.016C968.178 384.464 968.855 384.688 969.646 384.688ZM997.631 391.437C995.068 391.437 992.86 390.948 991.006 389.969C989.162 388.979 987.74 387.562 986.74 385.719C985.751 383.865 985.256 381.646 985.256 379.063C985.256 376.583 985.756 374.417 986.756 372.562C987.756 370.708 989.167 369.266 990.99 368.234C992.813 367.203 994.964 366.688 997.443 366.688C999.256 366.688 1000.9 366.969 1002.37 367.531C1003.83 368.094 1005.09 368.911 1006.13 369.984C1007.17 371.047 1007.97 372.339 1008.54 373.859C1009.1 375.38 1009.38 377.094 1009.38 379V381H987.943V376.25H1001.44C1001.43 375.562 1001.26 374.958 1000.91 374.437C1000.58 373.906 1000.13 373.495 999.553 373.203C998.99 372.901 998.35 372.75 997.631 372.75C996.933 372.75 996.292 372.901 995.709 373.203C995.126 373.495 994.657 373.901 994.303 374.422C993.959 374.943 993.777 375.552 993.756 376.25V381.375C993.756 382.146 993.917 382.833 994.24 383.438C994.563 384.042 995.027 384.516 995.631 384.859C996.235 385.203 996.964 385.375 997.818 385.375C998.412 385.375 998.954 385.292 999.443 385.125C999.943 384.958 1000.37 384.719 1000.72 384.406C1001.08 384.083 1001.34 383.698 1001.51 383.25H1009.38C1009.11 384.917 1008.47 386.365 1007.46 387.594C1006.45 388.813 1005.11 389.76 1003.44 390.437C1001.79 391.104 999.85 391.437 997.631 391.437ZM1036.49 367L1028.42 391H1018.42L1010.36 367H1019.42L1023.3 382.875H1023.55L1027.42 367H1036.49Z" fill="url(#paint2_linear_1_2)"/>
<defs>
<linearGradient id="paint0_linear_1_2" x1="640" y1="239" x2="640" y2="316" gradientUnits="userSpaceOnUse">
<stop offset="0.435" stop-color="#E6EDF3"/>
<stop offset="1" stop-color="#E6EDF3" stop-opacity="0.5"/>
</linearGradient>
<linearGradient id="paint1_linear_1_2" x1="180" y1="332.5" x2="1100" y2="332.5" gradientUnits="userSpaceOnUse">
<stop stop-color="#BD00FF"/>
<stop offset="1" stop-color="#4200FF"/>
</linearGradient>
<linearGradient id="paint2_linear_1_2" x1="640" y1="348" x2="640" y2="401" gradientUnits="userSpaceOnUse">
<stop offset="0.495" stop-color="#42474E"/>
<stop offset="1" stop-color="#42474E" stop-opacity="0.5"/>
</linearGradient>
</defs>
</svg>
