<svg width="1280" height="640" viewBox="0 0 1280 640" fill="none" xmlns="http://www.w3.org/2000/svg">
<path d="M465.91 269C465.788 267.485 465.22 266.303 464.205 265.455C463.205 264.606 461.682 264.182 459.637 264.182C458.334 264.182 457.266 264.341 456.432 264.659C455.614 264.962 455.008 265.379 454.614 265.909C454.22 266.439 454.016 267.045 454.001 267.727C453.97 268.288 454.069 268.795 454.296 269.25C454.538 269.689 454.917 270.091 455.432 270.455C455.948 270.803 456.607 271.121 457.41 271.409C458.213 271.697 459.167 271.955 460.273 272.182L464.091 273C466.667 273.545 468.872 274.265 470.705 275.159C472.538 276.053 474.038 277.106 475.205 278.318C476.372 279.515 477.228 280.864 477.773 282.364C478.334 283.864 478.622 285.5 478.637 287.273C478.622 290.333 477.857 292.924 476.341 295.045C474.826 297.167 472.66 298.78 469.841 299.886C467.038 300.992 463.667 301.545 459.728 301.545C455.682 301.545 452.152 300.947 449.137 299.75C446.137 298.553 443.804 296.712 442.137 294.227C440.485 291.727 439.652 288.53 439.637 284.636H451.637C451.713 286.061 452.069 287.258 452.705 288.227C453.341 289.197 454.235 289.932 455.387 290.432C456.554 290.932 457.94 291.182 459.546 291.182C460.895 291.182 462.023 291.015 462.932 290.682C463.841 290.348 464.531 289.886 465.001 289.295C465.47 288.705 465.713 288.03 465.728 287.273C465.713 286.561 465.478 285.939 465.023 285.409C464.584 284.864 463.857 284.379 462.841 283.955C461.826 283.515 460.455 283.106 458.728 282.727L454.091 281.727C449.97 280.833 446.72 279.341 444.341 277.25C441.978 275.144 440.804 272.273 440.819 268.636C440.804 265.682 441.591 263.098 443.182 260.886C444.788 258.659 447.008 256.924 449.841 255.682C452.69 254.439 455.955 253.818 459.637 253.818C463.395 253.818 466.645 254.447 469.387 255.705C472.129 256.962 474.243 258.735 475.728 261.023C477.228 263.295 477.985 265.955 478.001 269H465.91ZM491.433 301.545C489.206 301.545 487.236 301.182 485.524 300.455C483.827 299.712 482.493 298.591 481.524 297.091C480.554 295.591 480.069 293.682 480.069 291.364C480.069 289.455 480.395 287.826 481.046 286.477C481.698 285.114 482.607 284 483.774 283.136C484.94 282.273 486.296 281.614 487.842 281.159C489.403 280.705 491.084 280.409 492.887 280.273C494.842 280.121 496.41 279.939 497.592 279.727C498.789 279.5 499.653 279.189 500.183 278.795C500.713 278.386 500.978 277.848 500.978 277.182V277.091C500.978 276.182 500.63 275.485 499.933 275C499.236 274.515 498.342 274.273 497.251 274.273C496.054 274.273 495.077 274.538 494.319 275.068C493.577 275.583 493.13 276.379 492.978 277.455H481.433C481.584 275.333 482.259 273.379 483.456 271.591C484.668 269.788 486.433 268.348 488.751 267.273C491.069 266.182 493.963 265.636 497.433 265.636C499.933 265.636 502.175 265.932 504.16 266.523C506.145 267.098 507.834 267.909 509.228 268.955C510.622 269.985 511.683 271.197 512.41 272.591C513.153 273.97 513.524 275.47 513.524 277.091V301H501.796V296.091H501.524C500.827 297.394 499.978 298.447 498.978 299.25C497.993 300.053 496.865 300.636 495.592 301C494.334 301.364 492.948 301.545 491.433 301.545ZM495.524 293.636C496.478 293.636 497.372 293.439 498.206 293.045C499.054 292.652 499.743 292.083 500.274 291.341C500.804 290.598 501.069 289.697 501.069 288.636V285.727C500.736 285.864 500.38 285.992 500.001 286.114C499.637 286.235 499.243 286.348 498.819 286.455C498.41 286.561 497.971 286.659 497.501 286.75C497.046 286.841 496.569 286.924 496.069 287C495.1 287.152 494.304 287.402 493.683 287.75C493.077 288.083 492.622 288.5 492.319 289C492.031 289.485 491.887 290.03 491.887 290.636C491.887 291.606 492.228 292.348 492.91 292.864C493.592 293.379 494.463 293.636 495.524 293.636ZM517.598 301V266.091H529.507V272.727H529.871C530.598 270.545 531.841 268.818 533.598 267.545C535.356 266.273 537.447 265.636 539.871 265.636C542.325 265.636 544.439 266.288 546.212 267.591C547.984 268.879 549.053 270.591 549.416 272.727H549.78C550.371 270.591 551.628 268.879 553.553 267.591C555.477 266.288 557.734 265.636 560.325 265.636C563.674 265.636 566.386 266.712 568.462 268.864C570.553 271.015 571.598 273.879 571.598 277.455V301H559.053V280.636C559.053 279.106 558.666 277.909 557.894 277.045C557.121 276.167 556.083 275.727 554.78 275.727C553.492 275.727 552.469 276.167 551.712 277.045C550.969 277.909 550.598 279.106 550.598 280.636V301H538.598V280.636C538.598 279.106 538.212 277.909 537.439 277.045C536.666 276.167 535.628 275.727 534.325 275.727C533.462 275.727 532.719 275.924 532.098 276.318C531.477 276.712 530.992 277.28 530.644 278.023C530.31 278.75 530.144 279.621 530.144 280.636V301H517.598ZM598.502 285.727V266.091H611.047V301H599.138V294.364H598.775C598.017 296.591 596.691 298.333 594.797 299.591C592.903 300.833 590.653 301.455 588.047 301.455C585.608 301.455 583.472 300.894 581.638 299.773C579.82 298.652 578.403 297.106 577.388 295.136C576.388 293.167 575.881 290.909 575.866 288.364V266.091H588.411V285.727C588.426 287.455 588.866 288.811 589.729 289.795C590.608 290.78 591.835 291.273 593.411 291.273C594.456 291.273 595.358 291.053 596.116 290.614C596.888 290.159 597.479 289.523 597.888 288.705C598.313 287.871 598.517 286.879 598.502 285.727ZM632.235 301.636C628.508 301.636 625.296 300.924 622.599 299.5C619.917 298.061 617.849 296 616.394 293.318C614.955 290.621 614.235 287.394 614.235 283.636C614.235 280.03 614.963 276.879 616.417 274.182C617.872 271.485 619.925 269.386 622.576 267.886C625.228 266.386 628.357 265.636 631.963 265.636C634.599 265.636 636.985 266.045 639.122 266.864C641.258 267.682 643.084 268.871 644.599 270.432C646.114 271.977 647.281 273.856 648.099 276.068C648.917 278.28 649.326 280.773 649.326 283.545V286.455H618.144V279.545H637.781C637.766 278.545 637.508 277.667 637.008 276.909C636.523 276.136 635.864 275.538 635.031 275.114C634.213 274.674 633.281 274.455 632.235 274.455C631.22 274.455 630.288 274.674 629.44 275.114C628.591 275.538 627.91 276.129 627.394 276.886C626.894 277.644 626.629 278.53 626.599 279.545V287C626.599 288.121 626.834 289.121 627.304 290C627.773 290.879 628.447 291.568 629.326 292.068C630.205 292.568 631.266 292.818 632.508 292.818C633.372 292.818 634.16 292.697 634.872 292.455C635.599 292.212 636.22 291.864 636.735 291.409C637.251 290.939 637.629 290.379 637.872 289.727H649.326C648.932 292.152 648.001 294.258 646.531 296.045C645.061 297.818 643.114 299.197 640.69 300.182C638.281 301.152 635.463 301.636 632.235 301.636ZM665.071 254.455V301H652.526V254.455H665.071ZM692.009 301L678.282 254.455H692.373L698.737 283.091H699.1L706.646 254.455H717.737L725.282 283.182H725.646L732.009 254.455H746.1L732.373 301H720.282L712.373 275H712.009L704.1 301H692.009ZM754.118 301.545C751.891 301.545 749.921 301.182 748.209 300.455C746.512 299.712 745.178 298.591 744.209 297.091C743.239 295.591 742.754 293.682 742.754 291.364C742.754 289.455 743.08 287.826 743.731 286.477C744.383 285.114 745.292 284 746.459 283.136C747.625 282.273 748.981 281.614 750.527 281.159C752.088 280.705 753.769 280.409 755.572 280.273C757.527 280.121 759.095 279.939 760.277 279.727C761.474 279.5 762.338 279.189 762.868 278.795C763.398 278.386 763.663 277.848 763.663 277.182V277.091C763.663 276.182 763.315 275.485 762.618 275C761.921 274.515 761.027 274.273 759.936 274.273C758.739 274.273 757.762 274.538 757.004 275.068C756.262 275.583 755.815 276.379 755.663 277.455H744.118C744.269 275.333 744.944 273.379 746.141 271.591C747.353 269.788 749.118 268.348 751.436 267.273C753.754 266.182 756.648 265.636 760.118 265.636C762.618 265.636 764.86 265.932 766.845 266.523C768.83 267.098 770.519 267.909 771.913 268.955C773.307 269.985 774.368 271.197 775.095 272.591C775.838 273.97 776.209 275.47 776.209 277.091V301H764.481V296.091H764.209C763.512 297.394 762.663 298.447 761.663 299.25C760.678 300.053 759.55 300.636 758.277 301C757.019 301.364 755.633 301.545 754.118 301.545ZM758.209 293.636C759.163 293.636 760.057 293.439 760.891 293.045C761.739 292.652 762.428 292.083 762.959 291.341C763.489 290.598 763.754 289.697 763.754 288.636V285.727C763.421 285.864 763.065 285.992 762.686 286.114C762.322 286.235 761.928 286.348 761.504 286.455C761.095 286.561 760.656 286.659 760.186 286.75C759.731 286.841 759.254 286.924 758.754 287C757.785 287.152 756.989 287.402 756.368 287.75C755.762 288.083 755.307 288.5 755.004 289C754.716 289.485 754.572 290.03 754.572 290.636C754.572 291.606 754.913 292.348 755.595 292.864C756.277 293.379 757.148 293.636 758.209 293.636ZM780.283 301V266.091H792.465V272.727H792.829C793.465 270.273 794.472 268.477 795.851 267.341C797.245 266.205 798.874 265.636 800.738 265.636C801.283 265.636 801.821 265.682 802.351 265.773C802.897 265.848 803.419 265.962 803.919 266.114V276.818C803.298 276.606 802.533 276.447 801.624 276.341C800.715 276.235 799.935 276.182 799.283 276.182C798.056 276.182 796.95 276.462 795.965 277.023C794.995 277.568 794.23 278.341 793.669 279.341C793.109 280.326 792.829 281.485 792.829 282.818V301H780.283ZM816.749 301.455C814.265 301.455 811.977 300.803 809.886 299.5C807.81 298.197 806.143 296.22 804.886 293.568C803.643 290.917 803.022 287.576 803.022 283.545C803.022 279.333 803.674 275.909 804.977 273.273C806.295 270.636 807.992 268.705 810.068 267.477C812.159 266.25 814.355 265.636 816.659 265.636C818.386 265.636 819.901 265.939 821.204 266.545C822.507 267.136 823.598 267.932 824.477 268.932C825.355 269.917 826.022 271 826.477 272.182H826.659V254.455H839.204V301H826.749V295.273H826.477C825.992 296.455 825.295 297.515 824.386 298.455C823.492 299.379 822.401 300.114 821.113 300.659C819.84 301.189 818.386 301.455 816.749 301.455ZM821.386 291.818C822.537 291.818 823.522 291.485 824.34 290.818C825.174 290.136 825.81 289.182 826.249 287.955C826.704 286.712 826.931 285.242 826.931 283.545C826.931 281.818 826.704 280.341 826.249 279.114C825.81 277.871 825.174 276.924 824.34 276.273C823.522 275.606 822.537 275.273 821.386 275.273C820.234 275.273 819.249 275.606 818.431 276.273C817.628 276.924 817.007 277.871 816.568 279.114C816.143 280.341 815.931 281.818 815.931 283.545C815.931 285.273 816.143 286.758 816.568 288C817.007 289.227 817.628 290.174 818.431 290.841C819.249 291.492 820.234 291.818 821.386 291.818Z" fill="#1F2328"/>
<path d="M180 332H1100" stroke="url(#paint0_linear_3_2)" stroke-width="4" stroke-linecap="round"/>
<path d="M415.061 391H402.748V359H414.936C418.227 359 421.071 359.641 423.467 360.922C425.873 362.193 427.727 364.026 429.029 366.422C430.342 368.807 430.998 371.667 430.998 375C430.998 378.333 430.347 381.198 429.045 383.594C427.743 385.979 425.899 387.812 423.514 389.094C421.128 390.365 418.311 391 415.061 391ZM411.436 383.625H414.748C416.331 383.625 417.68 383.37 418.795 382.859C419.92 382.349 420.774 381.469 421.357 380.219C421.951 378.969 422.248 377.229 422.248 375C422.248 372.771 421.946 371.031 421.342 369.781C420.748 368.531 419.873 367.651 418.717 367.141C417.571 366.63 416.165 366.375 414.498 366.375H411.436V383.625ZM446.643 391.437C444.08 391.437 441.872 390.948 440.018 389.969C438.174 388.979 436.752 387.562 435.752 385.719C434.762 383.865 434.268 381.646 434.268 379.063C434.268 376.583 434.768 374.417 435.768 372.562C436.768 370.708 438.179 369.266 440.002 368.234C441.825 367.203 443.976 366.688 446.455 366.688C448.268 366.688 449.908 366.969 451.377 367.531C452.846 368.094 454.101 368.911 455.143 369.984C456.184 371.047 456.986 372.339 457.549 373.859C458.111 375.38 458.393 377.094 458.393 379V381H436.955V376.25H450.455C450.445 375.562 450.268 374.958 449.924 374.437C449.59 373.906 449.137 373.495 448.564 373.203C448.002 372.901 447.361 372.75 446.643 372.75C445.945 372.75 445.304 372.901 444.721 373.203C444.137 373.495 443.669 373.901 443.314 374.422C442.971 374.943 442.788 375.552 442.768 376.25V381.375C442.768 382.146 442.929 382.833 443.252 383.438C443.575 384.042 444.038 384.516 444.643 384.859C445.247 385.203 445.976 385.375 446.83 385.375C447.424 385.375 447.965 385.292 448.455 385.125C448.955 384.958 449.382 384.719 449.736 384.406C450.09 384.083 450.351 383.698 450.518 383.25H458.393C458.122 384.917 457.481 386.365 456.471 387.594C455.46 388.813 454.122 389.76 452.455 390.437C450.799 391.104 448.861 391.437 446.643 391.437ZM485.498 367L477.436 391H467.436L459.373 367H468.436L472.311 382.875H472.561L476.436 367H485.498ZM498.721 391.437C496.158 391.437 493.95 390.948 492.096 389.969C490.252 388.979 488.83 387.562 487.83 385.719C486.84 383.865 486.346 381.646 486.346 379.063C486.346 376.583 486.846 374.417 487.846 372.562C488.846 370.708 490.257 369.266 492.08 368.234C493.903 367.203 496.054 366.688 498.533 366.688C500.346 366.688 501.986 366.969 503.455 367.531C504.924 368.094 506.179 368.911 507.221 369.984C508.262 371.047 509.064 372.339 509.627 373.859C510.189 375.38 510.471 377.094 510.471 379V381H489.033V376.25H502.533C502.523 375.562 502.346 374.958 502.002 374.437C501.669 373.906 501.215 373.495 500.643 373.203C500.08 372.901 499.439 372.75 498.721 372.75C498.023 372.75 497.382 372.901 496.799 373.203C496.215 373.495 495.747 373.901 495.393 374.422C495.049 374.943 494.867 375.552 494.846 376.25V381.375C494.846 382.146 495.007 382.833 495.33 383.438C495.653 384.042 496.117 384.516 496.721 384.859C497.325 385.203 498.054 385.375 498.908 385.375C499.502 385.375 500.044 385.292 500.533 385.125C501.033 384.958 501.46 384.719 501.814 384.406C502.169 384.083 502.429 383.698 502.596 383.25H510.471C510.2 384.917 509.559 386.365 508.549 387.594C507.538 388.813 506.2 389.76 504.533 390.437C502.877 391.104 500.939 391.437 498.721 391.437ZM522.615 359V391H513.99V359H522.615ZM538.572 391.437C535.968 391.437 533.739 390.922 531.885 389.891C530.031 388.849 528.609 387.401 527.619 385.547C526.63 383.682 526.135 381.521 526.135 379.063C526.135 376.604 526.63 374.448 527.619 372.594C528.609 370.729 530.031 369.281 531.885 368.25C533.739 367.208 535.968 366.688 538.572 366.688C541.176 366.688 543.406 367.208 545.26 368.25C547.114 369.281 548.536 370.729 549.525 372.594C550.515 374.448 551.01 376.604 551.01 379.063C551.01 381.521 550.515 383.682 549.525 385.547C548.536 387.401 547.114 388.849 545.26 389.891C543.406 390.922 541.176 391.437 538.572 391.437ZM538.635 385.062C539.364 385.062 539.994 384.818 540.525 384.328C541.057 383.839 541.468 383.141 541.76 382.234C542.051 381.328 542.197 380.25 542.197 379C542.197 377.74 542.051 376.661 541.76 375.766C541.468 374.859 541.057 374.161 540.525 373.672C539.994 373.182 539.364 372.937 538.635 372.937C537.864 372.937 537.202 373.182 536.65 373.672C536.098 374.161 535.676 374.859 535.385 375.766C535.093 376.661 534.947 377.74 534.947 379C534.947 380.25 535.093 381.328 535.385 382.234C535.676 383.141 536.098 383.839 536.65 384.328C537.202 384.818 537.864 385.062 538.635 385.062ZM554.51 400V367H563.072V371.187H563.26C563.572 370.375 564.031 369.63 564.635 368.953C565.239 368.266 565.989 367.719 566.885 367.312C567.781 366.896 568.822 366.688 570.01 366.688C571.593 366.688 573.098 367.109 574.525 367.953C575.963 368.797 577.13 370.125 578.025 371.937C578.932 373.75 579.385 376.104 579.385 379C579.385 381.771 578.952 384.068 578.088 385.891C577.234 387.714 576.088 389.073 574.65 389.969C573.223 390.865 571.656 391.313 569.947 391.313C568.822 391.313 567.817 391.13 566.932 390.766C566.057 390.391 565.307 389.885 564.682 389.25C564.067 388.604 563.593 387.875 563.26 387.062H563.135V400H554.51ZM562.947 379C562.947 380.167 563.098 381.177 563.4 382.031C563.713 382.875 564.15 383.531 564.713 384C565.286 384.458 565.968 384.688 566.76 384.688C567.551 384.688 568.223 384.464 568.775 384.016C569.338 383.557 569.765 382.906 570.057 382.062C570.359 381.208 570.51 380.187 570.51 379C570.51 377.812 570.359 376.797 570.057 375.953C569.765 375.099 569.338 374.448 568.775 374C568.223 373.542 567.551 373.312 566.76 373.312C565.968 373.312 565.286 373.542 564.713 374C564.15 374.448 563.713 375.099 563.4 375.953C563.098 376.797 562.947 377.812 562.947 379ZM594.498 391.437C591.936 391.437 589.727 390.948 587.873 389.969C586.029 388.979 584.607 387.562 583.607 385.719C582.618 383.865 582.123 381.646 582.123 379.063C582.123 376.583 582.623 374.417 583.623 372.562C584.623 370.708 586.035 369.266 587.857 368.234C589.68 367.203 591.831 366.688 594.311 366.688C596.123 366.688 597.764 366.969 599.232 367.531C600.701 368.094 601.956 368.911 602.998 369.984C604.04 371.047 604.842 372.339 605.404 373.859C605.967 375.38 606.248 377.094 606.248 379V381H584.811V376.25H598.311C598.3 375.562 598.123 374.958 597.779 374.437C597.446 373.906 596.993 373.495 596.42 373.203C595.857 372.901 595.217 372.75 594.498 372.75C593.8 372.75 593.16 372.901 592.576 373.203C591.993 373.495 591.524 373.901 591.17 374.422C590.826 374.943 590.644 375.552 590.623 376.25V381.375C590.623 382.146 590.785 382.833 591.107 383.438C591.43 384.042 591.894 384.516 592.498 384.859C593.102 385.203 593.831 385.375 594.686 385.375C595.279 385.375 595.821 385.292 596.311 385.125C596.811 384.958 597.238 384.719 597.592 384.406C597.946 384.083 598.206 383.698 598.373 383.25H606.248C605.977 384.917 605.337 386.365 604.326 387.594C603.316 388.813 601.977 389.76 600.311 390.437C598.654 391.104 596.717 391.437 594.498 391.437ZM609.768 391V367H618.143V371.562H618.393C618.83 369.875 619.523 368.641 620.471 367.859C621.429 367.078 622.549 366.688 623.83 366.688C624.205 366.688 624.575 366.719 624.939 366.781C625.314 366.833 625.674 366.911 626.018 367.016V374.375C625.59 374.229 625.064 374.12 624.439 374.047C623.814 373.974 623.278 373.937 622.83 373.937C621.986 373.937 621.226 374.13 620.549 374.516C619.882 374.891 619.356 375.422 618.971 376.109C618.585 376.786 618.393 377.583 618.393 378.5V391H609.768ZM651.986 367V373.25H635.924V367H651.986ZM638.986 391V366.312C638.986 364.333 639.34 362.693 640.049 361.391C640.757 360.089 641.757 359.115 643.049 358.469C644.34 357.823 645.861 357.5 647.611 357.5C648.705 357.5 649.768 357.583 650.799 357.75C651.84 357.917 652.611 358.062 653.111 358.187L651.861 364.375C651.549 364.281 651.184 364.208 650.768 364.156C650.351 364.094 649.986 364.062 649.674 364.062C648.861 364.062 648.314 364.234 648.033 364.578C647.752 364.922 647.611 365.375 647.611 365.937V391H638.986ZM666.146 391.437C663.542 391.437 661.313 390.922 659.459 389.891C657.605 388.849 656.183 387.401 655.193 385.547C654.204 383.682 653.709 381.521 653.709 379.063C653.709 376.604 654.204 374.448 655.193 372.594C656.183 370.729 657.605 369.281 659.459 368.25C661.313 367.208 663.542 366.688 666.146 366.688C668.751 366.688 670.98 367.208 672.834 368.25C674.688 369.281 676.11 370.729 677.1 372.594C678.089 374.448 678.584 376.604 678.584 379.063C678.584 381.521 678.089 383.682 677.1 385.547C676.11 387.401 674.688 388.849 672.834 389.891C670.98 390.922 668.751 391.437 666.146 391.437ZM666.209 385.062C666.938 385.062 667.568 384.818 668.1 384.328C668.631 383.839 669.042 383.141 669.334 382.234C669.626 381.328 669.771 380.25 669.771 379C669.771 377.74 669.626 376.661 669.334 375.766C669.042 374.859 668.631 374.161 668.1 373.672C667.568 373.182 666.938 372.937 666.209 372.937C665.438 372.937 664.777 373.182 664.225 373.672C663.673 374.161 663.251 374.859 662.959 375.766C662.667 376.661 662.521 377.74 662.521 379C662.521 380.25 662.667 381.328 662.959 382.234C663.251 383.141 663.673 383.839 664.225 384.328C664.777 384.818 665.438 385.062 666.209 385.062ZM682.084 391V367H690.459V371.562H690.709C691.146 369.875 691.839 368.641 692.787 367.859C693.745 367.078 694.865 366.688 696.146 366.688C696.521 366.688 696.891 366.719 697.256 366.781C697.631 366.833 697.99 366.911 698.334 367.016V374.375C697.907 374.229 697.381 374.12 696.756 374.047C696.131 373.974 695.594 373.937 695.146 373.937C694.303 373.937 693.542 374.13 692.865 374.516C692.199 374.891 691.673 375.422 691.287 376.109C690.902 376.786 690.709 377.583 690.709 378.5V391H682.084ZM727.053 369C726.969 367.958 726.579 367.146 725.881 366.562C725.193 365.979 724.146 365.687 722.74 365.687C721.844 365.687 721.11 365.797 720.537 366.016C719.975 366.224 719.558 366.51 719.287 366.875C719.016 367.24 718.876 367.656 718.865 368.125C718.844 368.51 718.912 368.859 719.068 369.172C719.235 369.474 719.495 369.75 719.85 370C720.204 370.24 720.657 370.458 721.209 370.656C721.761 370.854 722.417 371.031 723.178 371.187L725.803 371.75C727.574 372.125 729.089 372.62 730.35 373.234C731.61 373.849 732.641 374.573 733.443 375.406C734.245 376.229 734.834 377.156 735.209 378.187C735.594 379.219 735.792 380.344 735.803 381.562C735.792 383.667 735.266 385.448 734.225 386.906C733.183 388.365 731.693 389.474 729.756 390.234C727.829 390.995 725.511 391.375 722.803 391.375C720.021 391.375 717.594 390.964 715.521 390.141C713.459 389.318 711.855 388.052 710.709 386.344C709.574 384.625 709.001 382.427 708.99 379.75H717.24C717.292 380.729 717.537 381.552 717.975 382.219C718.412 382.885 719.027 383.391 719.818 383.734C720.62 384.078 721.574 384.25 722.678 384.25C723.605 384.25 724.381 384.135 725.006 383.906C725.631 383.677 726.105 383.359 726.428 382.953C726.751 382.547 726.917 382.083 726.928 381.562C726.917 381.073 726.756 380.646 726.443 380.281C726.141 379.906 725.641 379.573 724.943 379.281C724.245 378.979 723.303 378.698 722.115 378.437L718.928 377.75C716.094 377.135 713.86 376.109 712.225 374.672C710.6 373.224 709.792 371.25 709.803 368.75C709.792 366.719 710.334 364.943 711.428 363.422C712.532 361.891 714.058 360.698 716.006 359.844C717.964 358.99 720.209 358.562 722.74 358.562C725.324 358.562 727.558 358.995 729.443 359.859C731.329 360.724 732.782 361.943 733.803 363.516C734.834 365.078 735.355 366.906 735.365 369H727.053ZM739.232 400V367H747.795V371.187H747.982C748.295 370.375 748.753 369.63 749.357 368.953C749.962 368.266 750.712 367.719 751.607 367.312C752.503 366.896 753.545 366.688 754.732 366.688C756.316 366.688 757.821 367.109 759.248 367.953C760.686 368.797 761.852 370.125 762.748 371.937C763.654 373.75 764.107 376.104 764.107 379C764.107 381.771 763.675 384.068 762.811 385.891C761.956 387.714 760.811 389.073 759.373 389.969C757.946 390.865 756.378 391.313 754.67 391.313C753.545 391.313 752.54 391.13 751.654 390.766C750.779 390.391 750.029 389.885 749.404 389.25C748.79 388.604 748.316 387.875 747.982 387.062H747.857V400H739.232ZM747.67 379C747.67 380.167 747.821 381.177 748.123 382.031C748.436 382.875 748.873 383.531 749.436 384C750.008 384.458 750.691 384.688 751.482 384.688C752.274 384.688 752.946 384.464 753.498 384.016C754.061 383.557 754.488 382.906 754.779 382.062C755.081 381.208 755.232 380.187 755.232 379C755.232 377.812 755.081 376.797 754.779 375.953C754.488 375.099 754.061 374.448 753.498 374C752.946 373.542 752.274 373.312 751.482 373.312C750.691 373.312 750.008 373.542 749.436 374C748.873 374.448 748.436 375.099 748.123 375.953C747.821 376.797 747.67 377.812 747.67 379ZM767.721 391V367H776.346V391H767.721ZM772.033 364.5C770.867 364.5 769.867 364.115 769.033 363.344C768.2 362.573 767.783 361.646 767.783 360.562C767.783 359.479 768.2 358.552 769.033 357.781C769.867 357.01 770.867 356.625 772.033 356.625C773.21 356.625 774.21 357.01 775.033 357.781C775.867 358.552 776.283 359.479 776.283 360.562C776.283 361.646 775.867 362.573 775.033 363.344C774.21 364.115 773.21 364.5 772.033 364.5ZM780.74 391V367H789.115V371.562H789.365C789.803 369.875 790.495 368.641 791.443 367.859C792.402 367.078 793.521 366.688 794.803 366.688C795.178 366.688 795.548 366.719 795.912 366.781C796.287 366.833 796.646 366.911 796.99 367.016V374.375C796.563 374.229 796.037 374.12 795.412 374.047C794.787 373.974 794.251 373.937 793.803 373.937C792.959 373.937 792.199 374.13 791.521 374.516C790.855 374.891 790.329 375.422 789.943 376.109C789.558 376.786 789.365 377.583 789.365 378.5V391H780.74ZM807.568 385.312L807.631 375.063H808.756L814.568 367H824.256L814.506 379.562H812.068L807.568 385.312ZM799.818 391V359H808.443V391H799.818ZM814.631 391L809.131 381.5L814.756 375.375L824.506 391H814.631ZM837.076 391.437C834.472 391.437 832.243 390.922 830.389 389.891C828.535 388.849 827.113 387.401 826.123 385.547C825.133 383.682 824.639 381.521 824.639 379.063C824.639 376.604 825.133 374.448 826.123 372.594C827.113 370.729 828.535 369.281 830.389 368.25C832.243 367.208 834.472 366.688 837.076 366.688C839.68 366.688 841.91 367.208 843.764 368.25C845.618 369.281 847.04 370.729 848.029 372.594C849.019 374.448 849.514 376.604 849.514 379.063C849.514 381.521 849.019 383.682 848.029 385.547C847.04 387.401 845.618 388.849 843.764 389.891C841.91 390.922 839.68 391.437 837.076 391.437ZM837.139 385.062C837.868 385.062 838.498 384.818 839.029 384.328C839.561 383.839 839.972 383.141 840.264 382.234C840.555 381.328 840.701 380.25 840.701 379C840.701 377.74 840.555 376.661 840.264 375.766C839.972 374.859 839.561 374.161 839.029 373.672C838.498 373.182 837.868 372.937 837.139 372.937C836.368 372.937 835.706 373.182 835.154 373.672C834.602 374.161 834.18 374.859 833.889 375.766C833.597 376.661 833.451 377.74 833.451 379C833.451 380.25 833.597 381.328 833.889 382.234C834.18 383.141 834.602 383.839 835.154 384.328C835.706 384.818 836.368 385.062 837.139 385.062ZM853.014 400V367H861.576V371.187H861.764C862.076 370.375 862.535 369.63 863.139 368.953C863.743 368.266 864.493 367.719 865.389 367.312C866.285 366.896 867.326 366.688 868.514 366.688C870.097 366.688 871.602 367.109 873.029 367.953C874.467 368.797 875.633 370.125 876.529 371.937C877.436 373.75 877.889 376.104 877.889 379C877.889 381.771 877.456 384.068 876.592 385.891C875.738 387.714 874.592 389.073 873.154 389.969C871.727 390.865 870.16 391.313 868.451 391.313C867.326 391.313 866.321 391.13 865.436 390.766C864.561 390.391 863.811 389.885 863.186 389.25C862.571 388.604 862.097 387.875 861.764 387.062H861.639V400H853.014ZM861.451 379C861.451 380.167 861.602 381.177 861.904 382.031C862.217 382.875 862.654 383.531 863.217 384C863.79 384.458 864.472 384.688 865.264 384.688C866.055 384.688 866.727 384.464 867.279 384.016C867.842 383.557 868.269 382.906 868.561 382.062C868.863 381.208 869.014 380.187 869.014 379C869.014 377.812 868.863 376.797 868.561 375.953C868.269 375.099 867.842 374.448 867.279 374C866.727 373.542 866.055 373.312 865.264 373.312C864.472 373.312 863.79 373.542 863.217 374C862.654 374.448 862.217 375.099 861.904 375.953C861.602 376.797 861.451 377.812 861.451 379Z" fill="#30363D"/>
<defs>
<linearGradient id="paint0_linear_3_2" x1="180" y1="332.5" x2="1100" y2="332.5" gradientUnits="userSpaceOnUse">
<stop stop-color="#BD00FF"/>
<stop offset="1" stop-color="#4200FF"/>
</linearGradient>
</defs>
</svg>
